<svg xmlns="http://www.w3.org/2000/svg" xmlns:xlink="http://www.w3.org/1999/xlink" width="1080" zoomAndPan="magnify" viewBox="0 0 810 809.999993" height="1080" preserveAspectRatio="xMidYMid meet" version="1.0"><defs><g/><clipPath id="6bc86da70c"><path d="M 595 302 L 677.90625 302 L 677.90625 378 L 595 378 Z M 595 302 " clip-rule="nonzero"/></clipPath></defs><path fill="#000000" d="M 653.027344 322.554688 L 639.230469 336.429688 " fill-opacity="1" fill-rule="nonzero"/><path fill="#000000" d="M 608.046875 335.039062 L 625.425781 339.902344 " fill-opacity="1" fill-rule="nonzero"/><path fill="#000000" d="M 615.859375 353.097656 L 627.609375 345.84375 " fill-opacity="1" fill-rule="nonzero"/><path fill="#000000" d="M 635.347656 347.660156 L 641.589844 368.46875 " fill-opacity="1" fill-rule="nonzero"/><path fill="#000000" d="M 623.675781 322.554688 L 629.820312 333.628906 " fill-opacity="1" fill-rule="nonzero"/><path fill="#feda7c" d="M 640.417969 340.511719 C 640.417969 341.007812 640.371094 341.496094 640.273438 341.984375 C 640.179688 342.472656 640.035156 342.945312 639.847656 343.402344 C 639.660156 343.859375 639.429688 344.296875 639.15625 344.707031 C 638.882812 345.121094 638.570312 345.503906 638.222656 345.855469 C 637.875 346.203125 637.496094 346.519531 637.085938 346.792969 C 636.679688 347.070312 636.246094 347.300781 635.789062 347.492188 C 635.335938 347.683594 634.867188 347.824219 634.382812 347.921875 C 633.902344 348.019531 633.414062 348.066406 632.921875 348.066406 C 632.429688 348.066406 631.941406 348.019531 631.460938 347.921875 C 630.976562 347.824219 630.507812 347.683594 630.050781 347.492188 C 629.597656 347.300781 629.164062 347.070312 628.757812 346.792969 C 628.347656 346.519531 627.96875 346.203125 627.621094 345.855469 C 627.273438 345.503906 626.960938 345.121094 626.6875 344.707031 C 626.414062 344.296875 626.183594 343.859375 625.996094 343.402344 C 625.804688 342.945312 625.664062 342.472656 625.566406 341.984375 C 625.472656 341.496094 625.425781 341.007812 625.425781 340.511719 C 625.425781 340.011719 625.472656 339.523438 625.566406 339.035156 C 625.664062 338.546875 625.804688 338.074219 625.996094 337.617188 C 626.183594 337.160156 626.414062 336.722656 626.6875 336.3125 C 626.960938 335.898438 627.273438 335.515625 627.621094 335.164062 C 627.96875 334.816406 628.347656 334.5 628.757812 334.226562 C 629.164062 333.949219 629.597656 333.71875 630.050781 333.527344 C 630.507812 333.335938 630.976562 333.195312 631.460938 333.097656 C 631.941406 333 632.429688 332.953125 632.921875 332.953125 C 633.414062 332.953125 633.902344 333 634.382812 333.097656 C 634.867188 333.195312 635.335938 333.335938 635.789062 333.527344 C 636.246094 333.71875 636.679688 333.949219 637.085938 334.226562 C 637.496094 334.5 637.875 334.816406 638.222656 335.164062 C 638.570312 335.515625 638.882812 335.898438 639.15625 336.3125 C 639.429688 336.722656 639.660156 337.160156 639.847656 337.617188 C 640.035156 338.074219 640.179688 338.546875 640.273438 339.035156 C 640.371094 339.523438 640.417969 340.011719 640.417969 340.511719 Z M 640.417969 340.511719 " fill-opacity="1" fill-rule="nonzero"/><path fill="#f86868" d="M 628.664062 313.523438 C 628.664062 314.214844 628.597656 314.898438 628.464844 315.574219 C 628.332031 316.25 628.132812 316.910156 627.871094 317.546875 C 627.609375 318.183594 627.289062 318.789062 626.90625 319.363281 C 626.527344 319.9375 626.09375 320.46875 625.609375 320.957031 C 625.125 321.445312 624.597656 321.882812 624.03125 322.265625 C 623.460938 322.648438 622.859375 322.972656 622.226562 323.238281 C 621.59375 323.5 620.941406 323.699219 620.269531 323.835938 C 619.597656 323.96875 618.921875 324.039062 618.234375 324.039062 C 617.550781 324.039062 616.871094 323.96875 616.199219 323.835938 C 615.527344 323.699219 614.875 323.5 614.242188 323.238281 C 613.609375 322.972656 613.007812 322.648438 612.441406 322.265625 C 611.871094 321.882812 611.34375 321.445312 610.859375 320.957031 C 610.375 320.46875 609.941406 319.9375 609.5625 319.363281 C 609.179688 318.789062 608.859375 318.183594 608.597656 317.546875 C 608.335938 316.910156 608.136719 316.25 608.003906 315.574219 C 607.871094 314.898438 607.804688 314.214844 607.804688 313.523438 C 607.804688 312.832031 607.871094 312.148438 608.003906 311.472656 C 608.136719 310.792969 608.335938 310.136719 608.597656 309.5 C 608.859375 308.863281 609.179688 308.253906 609.5625 307.683594 C 609.941406 307.109375 610.375 306.578125 610.859375 306.089844 C 611.34375 305.601562 611.871094 305.164062 612.441406 304.78125 C 613.007812 304.398438 613.609375 304.074219 614.242188 303.808594 C 614.875 303.542969 615.527344 303.34375 616.199219 303.210938 C 616.871094 303.074219 617.550781 303.007812 618.234375 303.007812 C 618.921875 303.007812 619.597656 303.074219 620.269531 303.210938 C 620.941406 303.34375 621.59375 303.542969 622.226562 303.808594 C 622.859375 304.074219 623.460938 304.398438 624.03125 304.78125 C 624.597656 305.164062 625.125 305.601562 625.609375 306.089844 C 626.09375 306.578125 626.527344 307.109375 626.90625 307.683594 C 627.289062 308.253906 627.609375 308.863281 627.871094 309.5 C 628.132812 310.136719 628.332031 310.792969 628.464844 311.472656 C 628.597656 312.148438 628.664062 312.832031 628.664062 313.523438 Z M 628.664062 313.523438 " fill-opacity="1" fill-rule="nonzero"/><path fill="#d3d6dd" d="M 676.9375 342.53125 C 676.9375 343.222656 676.871094 343.90625 676.738281 344.585938 C 676.605469 345.261719 676.40625 345.917969 676.144531 346.554688 C 675.882812 347.195312 675.5625 347.800781 675.179688 348.375 C 674.800781 348.949219 674.367188 349.480469 673.882812 349.96875 C 673.398438 350.457031 672.871094 350.890625 672.304688 351.273438 C 671.734375 351.660156 671.132812 351.984375 670.5 352.246094 C 669.867188 352.511719 669.214844 352.710938 668.542969 352.84375 C 667.871094 352.980469 667.191406 353.046875 666.507812 353.046875 C 665.824219 353.046875 665.144531 352.980469 664.472656 352.84375 C 663.800781 352.710938 663.148438 352.511719 662.515625 352.246094 C 661.882812 351.984375 661.28125 351.660156 660.714844 351.273438 C 660.144531 350.890625 659.617188 350.457031 659.132812 349.96875 C 658.648438 349.480469 658.214844 348.949219 657.835938 348.375 C 657.453125 347.800781 657.132812 347.195312 656.871094 346.554688 C 656.609375 345.917969 656.410156 345.261719 656.277344 344.585938 C 656.144531 343.90625 656.078125 343.222656 656.078125 342.53125 C 656.078125 341.84375 656.144531 341.160156 656.277344 340.480469 C 656.410156 339.804688 656.609375 339.148438 656.871094 338.507812 C 657.132812 337.871094 657.453125 337.265625 657.835938 336.691406 C 658.214844 336.117188 658.648438 335.585938 659.132812 335.097656 C 659.617188 334.609375 660.144531 334.175781 660.714844 333.789062 C 661.28125 333.40625 661.882812 333.082031 662.515625 332.820312 C 663.148438 332.554688 663.800781 332.355469 664.472656 332.21875 C 665.144531 332.085938 665.824219 332.019531 666.507812 332.019531 C 667.191406 332.019531 667.871094 332.085938 668.542969 332.21875 C 669.214844 332.355469 669.867188 332.554688 670.5 332.820312 C 671.132812 333.082031 671.734375 333.40625 672.304688 333.789062 C 672.871094 334.175781 673.398438 334.609375 673.882812 335.097656 C 674.367188 335.585938 674.800781 336.117188 675.179688 336.691406 C 675.5625 337.265625 675.882812 337.871094 676.144531 338.507812 C 676.40625 339.148438 676.605469 339.804688 676.738281 340.480469 C 676.871094 341.160156 676.9375 341.84375 676.9375 342.53125 Z M 676.9375 342.53125 " fill-opacity="1" fill-rule="nonzero"/><path fill="#1eb975" d="M 617.324219 358.582031 C 617.324219 359.273438 617.257812 359.957031 617.125 360.632812 C 616.992188 361.3125 616.792969 361.96875 616.53125 362.605469 C 616.269531 363.246094 615.949219 363.851562 615.566406 364.425781 C 615.1875 365 614.753906 365.53125 614.269531 366.019531 C 613.785156 366.507812 613.257812 366.941406 612.691406 367.324219 C 612.121094 367.710938 611.519531 368.03125 610.886719 368.296875 C 610.253906 368.5625 609.601562 368.761719 608.929688 368.894531 C 608.257812 369.03125 607.578125 369.097656 606.894531 369.097656 C 606.210938 369.097656 605.53125 369.03125 604.859375 368.894531 C 604.1875 368.761719 603.535156 368.5625 602.902344 368.296875 C 602.269531 368.03125 601.667969 367.710938 601.101562 367.324219 C 600.53125 366.941406 600.003906 366.507812 599.519531 366.019531 C 599.035156 365.53125 598.601562 365 598.222656 364.425781 C 597.839844 363.851562 597.519531 363.246094 597.257812 362.605469 C 596.996094 361.96875 596.796875 361.3125 596.664062 360.632812 C 596.53125 359.957031 596.464844 359.273438 596.464844 358.582031 C 596.464844 357.894531 596.53125 357.210938 596.664062 356.53125 C 596.796875 355.855469 596.996094 355.199219 597.257812 354.558594 C 597.519531 353.921875 597.839844 353.316406 598.222656 352.742188 C 598.601562 352.167969 599.035156 351.636719 599.519531 351.148438 C 600.003906 350.660156 600.53125 350.222656 601.101562 349.839844 C 601.667969 349.457031 602.269531 349.132812 602.902344 348.867188 C 603.535156 348.605469 604.1875 348.40625 604.859375 348.269531 C 605.53125 348.136719 606.210938 348.070312 606.894531 348.070312 C 607.578125 348.070312 608.257812 348.136719 608.929688 348.269531 C 609.601562 348.40625 610.253906 348.605469 610.886719 348.867188 C 611.519531 349.132812 612.121094 349.457031 612.691406 349.839844 C 613.257812 350.222656 613.785156 350.660156 614.269531 351.148438 C 614.753906 351.636719 615.1875 352.167969 615.566406 352.742188 C 615.949219 353.316406 616.269531 353.921875 616.53125 354.558594 C 616.792969 355.199219 616.992188 355.855469 617.125 356.53125 C 617.257812 357.210938 617.324219 357.894531 617.324219 358.582031 Z M 617.324219 358.582031 " fill-opacity="1" fill-rule="nonzero"/><g clip-path="url(#6bc86da70c)"><path fill="#000000" d="M 666.507812 331.046875 C 660.550781 331.046875 655.652344 335.679688 655.160156 341.558594 L 641.316406 341.558594 C 641.535156 339.769531 641.203125 338.085938 640.433594 336.59375 L 653.136719 323.816406 C 653.929688 324.289062 654.835938 324.578125 655.820312 324.578125 C 658.746094 324.578125 661.125 322.179688 661.125 319.230469 C 661.125 316.28125 658.746094 313.882812 655.820312 313.882812 C 652.894531 313.882812 650.515625 316.28125 650.515625 319.230469 C 650.515625 320.484375 650.964844 321.621094 651.683594 322.535156 L 639.332031 334.957031 C 637.78125 333.136719 635.484375 331.980469 632.921875 331.980469 C 631.992188 331.980469 631.097656 332.136719 630.257812 332.421875 L 624.925781 322.816406 C 629.730469 319.3125 631.078125 312.664062 627.953125 307.523438 C 624.597656 302.003906 617.558594 300.472656 612.285156 303.730469 C 606.914062 307.046875 605.226562 314.113281 608.519531 319.527344 C 611.570312 324.554688 617.882812 326.488281 623.265625 323.808594 L 628.503906 333.25 C 626.578125 334.445312 625.160156 336.390625 624.660156 338.683594 L 609.003906 334.300781 C 609.003906 334.265625 609.011719 334.234375 609.011719 334.199219 C 609.011719 331.25 606.632812 328.851562 603.707031 328.851562 C 600.78125 328.851562 598.402344 331.25 598.402344 334.199219 C 598.402344 337.148438 600.78125 339.546875 603.707031 339.546875 C 605.925781 339.546875 607.824219 338.164062 608.617188 336.210938 L 624.464844 340.648438 C 624.496094 342.507812 625.117188 344.21875 626.148438 345.605469 L 616.082031 351.824219 C 612.492188 346.855469 605.824219 345.6875 600.820312 348.867188 C 595.503906 352.242188 593.902344 359.351562 597.253906 364.710938 C 600.660156 370.15625 607.714844 371.644531 612.972656 368.304688 C 617.960938 365.136719 619.675781 358.6875 617.105469 353.476562 L 627.5 347.054688 C 628.972656 348.296875 630.863281 349.042969 632.921875 349.042969 C 633.53125 349.042969 634.125 348.976562 634.695312 348.851562 L 640.460938 368.066406 C 638.921875 369.003906 637.882812 370.6875 637.882812 372.628906 C 637.882812 375.578125 640.261719 377.980469 643.1875 377.980469 C 646.113281 377.980469 648.492188 375.578125 648.492188 372.628906 C 648.492188 369.679688 646.113281 367.28125 643.1875 367.28125 C 642.871094 367.28125 642.570312 367.324219 642.273438 367.375 L 636.523438 348.222656 C 638.503906 347.277344 640.058594 345.585938 640.835938 343.507812 L 655.160156 343.507812 C 655.65625 349.390625 660.550781 354.023438 666.511719 354.023438 C 672.792969 354.023438 677.90625 348.871094 677.90625 342.535156 C 677.90625 336.203125 672.792969 331.046875 666.507812 331.046875 Z M 655.820312 315.828125 C 657.679688 315.828125 659.195312 317.355469 659.195312 319.230469 C 659.195312 321.105469 657.679688 322.628906 655.820312 322.628906 C 653.960938 322.628906 652.445312 321.105469 652.445312 319.230469 C 652.445312 317.355469 653.960938 315.828125 655.820312 315.828125 Z M 610.164062 318.507812 C 607.429688 314.011719 608.828125 308.144531 613.289062 305.386719 C 617.667969 302.683594 623.519531 303.953125 626.308594 308.539062 C 629.039062 313.03125 627.644531 318.902344 623.179688 321.660156 C 618.800781 324.363281 612.949219 323.097656 610.164062 318.507812 Z M 603.707031 337.597656 C 601.847656 337.597656 600.332031 336.070312 600.332031 334.195312 C 600.332031 332.320312 601.847656 330.792969 603.707031 330.792969 C 605.566406 330.792969 607.082031 332.320312 607.082031 334.195312 C 607.082031 336.070312 605.566406 337.597656 603.707031 337.597656 Z M 646.5625 372.628906 C 646.5625 374.503906 645.046875 376.03125 643.1875 376.03125 C 641.328125 376.03125 639.8125 374.503906 639.8125 372.628906 C 639.8125 370.753906 641.328125 369.226562 643.1875 369.226562 C 645.046875 369.226562 646.5625 370.753906 646.5625 372.628906 Z M 611.941406 366.65625 C 607.5625 369.4375 601.703125 368.175781 598.886719 363.671875 C 596.105469 359.21875 597.433594 353.316406 601.847656 350.511719 C 606.242188 347.722656 612.089844 348.996094 614.902344 353.496094 C 617.683594 357.945312 616.355469 363.851562 611.941406 366.65625 Z M 632.921875 347.09375 C 629.320312 347.09375 626.390625 344.140625 626.390625 340.511719 C 626.390625 336.878906 629.320312 333.925781 632.921875 333.925781 C 636.523438 333.925781 639.453125 336.878906 639.453125 340.511719 C 639.453125 344.140625 636.523438 347.09375 632.921875 347.09375 Z M 666.507812 352.074219 C 661.289062 352.074219 657.042969 347.792969 657.042969 342.53125 C 657.042969 337.273438 661.289062 332.992188 666.507812 332.992188 C 671.726562 332.992188 675.972656 337.273438 675.972656 342.53125 C 675.972656 347.792969 671.726562 352.074219 666.507812 352.074219 Z M 666.507812 352.074219 " fill-opacity="1" fill-rule="nonzero"/></g><g fill="#004aad" fill-opacity="1"><g transform="translate(95.234031, 468.338035)"><g><path d="M 43.640625 0.734375 C 42.265625 0.734375 41.179688 0.289062 40.390625 -0.59375 C 39.597656 -1.476562 39.203125 -2.613281 39.203125 -4 L 39.203125 -96.3125 L 5.03125 -96.3125 C 3.75 -96.3125 2.738281 -96.65625 2 -97.34375 C 1.257812 -98.03125 0.890625 -99.015625 0.890625 -100.296875 C 0.890625 -101.578125 1.257812 -102.5625 2 -103.25 C 2.738281 -103.945312 3.75 -104.296875 5.03125 -104.296875 L 82.25 -104.296875 C 83.4375 -104.296875 84.421875 -103.925781 85.203125 -103.1875 C 85.992188 -102.445312 86.390625 -101.484375 86.390625 -100.296875 C 86.390625 -99.117188 85.992188 -98.160156 85.203125 -97.421875 C 84.421875 -96.679688 83.4375 -96.3125 82.25 -96.3125 L 48.234375 -96.3125 L 48.234375 -4 C 48.234375 -2.613281 47.8125 -1.476562 46.96875 -0.59375 C 46.132812 0.289062 45.023438 0.734375 43.640625 0.734375 Z M 43.640625 0.734375 "/></g></g></g><g fill="#004aad" fill-opacity="1"><g transform="translate(182.510446, 468.338035)"><g><path d="M 45.265625 -73.234375 C 47.140625 -73.328125 48.472656 -73.078125 49.265625 -72.484375 C 50.054688 -71.898438 50.453125 -70.914062 50.453125 -69.53125 C 50.453125 -67.0625 48.972656 -65.679688 46.015625 -65.390625 L 41.578125 -64.9375 C 34.566406 -64.25 29.359375 -61.734375 25.953125 -57.390625 C 22.554688 -53.054688 20.859375 -47.976562 20.859375 -42.15625 L 20.859375 -3.84375 C 20.859375 -2.363281 20.460938 -1.226562 19.671875 -0.4375 C 18.890625 0.34375 17.804688 0.734375 16.421875 0.734375 C 15.035156 0.734375 13.921875 0.34375 13.078125 -0.4375 C 12.242188 -1.226562 11.828125 -2.363281 11.828125 -3.84375 L 11.828125 -68.640625 C 11.828125 -70.117188 12.242188 -71.253906 13.078125 -72.046875 C 13.921875 -72.835938 15.035156 -73.234375 16.421875 -73.234375 C 17.703125 -73.234375 18.738281 -72.835938 19.53125 -72.046875 C 20.320312 -71.253906 20.71875 -70.171875 20.71875 -68.796875 L 20.71875 -59.171875 C 24.757812 -67.648438 32.253906 -72.285156 43.203125 -73.078125 Z M 45.265625 -73.234375 "/></g></g></g><g fill="#004aad" fill-opacity="1"><g transform="translate(232.657401, 468.338035)"><g><path d="M 40.234375 -73.53125 C 48.910156 -73.53125 55.394531 -71.257812 59.6875 -66.71875 C 63.976562 -62.1875 66.125 -55.332031 66.125 -46.15625 L 66.125 -4 C 66.125 -2.613281 65.726562 -1.5 64.9375 -0.65625 C 64.15625 0.175781 63.070312 0.59375 61.6875 0.59375 C 60.3125 0.59375 59.226562 0.175781 58.4375 -0.65625 C 57.644531 -1.5 57.25 -2.613281 57.25 -4 L 57.25 -12.875 C 55.175781 -8.4375 52.164062 -5.007812 48.21875 -2.59375 C 44.28125 -0.175781 39.75 1.03125 34.625 1.03125 C 29.988281 1.03125 25.742188 0.09375 21.890625 -1.78125 C 18.046875 -3.65625 15.015625 -6.265625 12.796875 -9.609375 C 10.578125 -12.960938 9.46875 -16.664062 9.46875 -20.71875 C 9.46875 -26.039062 10.847656 -30.179688 13.609375 -33.140625 C 16.367188 -36.097656 20.953125 -38.21875 27.359375 -39.5 C 33.773438 -40.78125 42.703125 -41.421875 54.140625 -41.421875 L 57.25 -41.421875 L 57.25 -46.890625 C 57.25 -53.398438 55.914062 -58.160156 53.25 -61.171875 C 50.59375 -64.179688 46.40625 -65.6875 40.6875 -65.6875 C 33.382812 -65.6875 26.429688 -63.765625 19.828125 -59.921875 C 19.523438 -59.722656 18.757812 -59.203125 17.53125 -58.359375 C 16.300781 -57.523438 15.238281 -57.109375 14.34375 -57.109375 C 13.363281 -57.109375 12.550781 -57.476562 11.90625 -58.21875 C 11.269531 -58.957031 10.953125 -59.867188 10.953125 -60.953125 C 10.953125 -63.117188 12.675781 -65.238281 16.125 -67.3125 C 19.570312 -69.28125 23.414062 -70.804688 27.65625 -71.890625 C 31.90625 -72.984375 36.097656 -73.53125 40.234375 -73.53125 Z M 35.359375 -6.8125 C 41.765625 -6.8125 47.015625 -8.976562 51.109375 -13.3125 C 55.203125 -17.65625 57.25 -23.179688 57.25 -29.890625 L 57.25 -34.765625 L 54.4375 -34.765625 C 44.96875 -34.765625 37.71875 -34.367188 32.6875 -33.578125 C 27.664062 -32.785156 24.117188 -31.425781 22.046875 -29.5 C 19.972656 -27.582031 18.9375 -24.800781 18.9375 -21.15625 C 18.9375 -17.007812 20.515625 -13.582031 23.671875 -10.875 C 26.828125 -8.164062 30.722656 -6.8125 35.359375 -6.8125 Z M 35.359375 -6.8125 "/></g></g></g><g fill="#004aad" fill-opacity="1"><g transform="translate(310.466544, 468.338035)"><g><path d="M 40.53125 1.03125 C 33.925781 1.03125 28.109375 -0.492188 23.078125 -3.546875 C 18.046875 -6.609375 14.148438 -10.945312 11.390625 -16.5625 C 8.628906 -22.1875 7.25 -28.648438 7.25 -35.953125 C 7.25 -43.347656 8.65625 -49.878906 11.46875 -55.546875 C 14.28125 -61.222656 18.222656 -65.640625 23.296875 -68.796875 C 28.378906 -71.953125 34.222656 -73.53125 40.828125 -73.53125 C 44.578125 -73.53125 48.226562 -73.035156 51.78125 -72.046875 C 55.332031 -71.054688 58.488281 -69.578125 61.25 -67.609375 C 63.019531 -66.328125 64.273438 -65.164062 65.015625 -64.125 C 65.753906 -63.09375 66.125 -61.984375 66.125 -60.796875 C 66.125 -59.710938 65.828125 -58.828125 65.234375 -58.140625 C 64.648438 -57.453125 63.910156 -57.109375 63.015625 -57.109375 C 62.035156 -57.109375 60.457031 -57.945312 58.28125 -59.625 C 55.71875 -61.488281 53.15625 -62.960938 50.59375 -64.046875 C 48.03125 -65.140625 44.925781 -65.6875 41.28125 -65.6875 C 33.582031 -65.6875 27.5625 -63.046875 23.21875 -57.765625 C 18.882812 -52.492188 16.71875 -45.222656 16.71875 -35.953125 C 16.71875 -26.773438 18.863281 -19.644531 23.15625 -14.5625 C 27.445312 -9.488281 33.4375 -6.953125 41.125 -6.953125 C 44.875 -6.953125 48.003906 -7.492188 50.515625 -8.578125 C 53.035156 -9.660156 55.773438 -11.140625 58.734375 -13.015625 C 59.617188 -13.609375 60.476562 -14.148438 61.3125 -14.640625 C 62.15625 -15.140625 62.820312 -15.390625 63.3125 -15.390625 C 64.300781 -15.390625 65.09375 -15.039062 65.6875 -14.34375 C 66.28125 -13.65625 66.578125 -12.816406 66.578125 -11.828125 C 66.578125 -10.648438 66.226562 -9.613281 65.53125 -8.71875 C 64.84375 -7.832031 63.515625 -6.703125 61.546875 -5.328125 C 58.878906 -3.347656 55.644531 -1.789062 51.84375 -0.65625 C 48.050781 0.46875 44.28125 1.03125 40.53125 1.03125 Z M 40.53125 1.03125 "/></g></g></g><g fill="#004aad" fill-opacity="1"><g transform="translate(380.731451, 468.338035)"><g><path d="M 66.28125 -7.09375 C 67.5625 -5.914062 68.203125 -4.6875 68.203125 -3.40625 C 68.203125 -2.320312 67.804688 -1.359375 67.015625 -0.515625 C 66.222656 0.316406 65.285156 0.734375 64.203125 0.734375 C 63.210938 0.734375 62.175781 0.289062 61.09375 -0.59375 L 20.859375 -34.90625 L 20.859375 -3.84375 C 20.859375 -2.363281 20.4375 -1.226562 19.59375 -0.4375 C 18.757812 0.34375 17.703125 0.734375 16.421875 0.734375 C 15.035156 0.734375 13.921875 0.34375 13.078125 -0.4375 C 12.242188 -1.226562 11.828125 -2.363281 11.828125 -3.84375 L 11.828125 -100.453125 C 11.828125 -101.929688 12.242188 -103.0625 13.078125 -103.84375 C 13.921875 -104.632812 15.035156 -105.03125 16.421875 -105.03125 C 17.703125 -105.03125 18.757812 -104.632812 19.59375 -103.84375 C 20.4375 -103.0625 20.859375 -101.929688 20.859375 -100.453125 L 20.859375 -38.609375 L 57.703125 -71.75 C 58.785156 -72.632812 59.816406 -73.078125 60.796875 -73.078125 C 61.984375 -73.078125 62.992188 -72.65625 63.828125 -71.8125 C 64.671875 -70.976562 65.09375 -69.972656 65.09375 -68.796875 C 65.09375 -67.316406 64.5 -66.128906 63.3125 -65.234375 L 31.359375 -36.984375 Z M 66.28125 -7.09375 "/></g></g></g><g fill="#004aad" fill-opacity="1"><g transform="translate(452.327686, 468.338035)"><g/></g></g><g fill="#004aad" fill-opacity="1"><g transform="translate(489.605065, 468.338035)"><g><path d="M 18.046875 0.734375 C 16.671875 0.734375 15.5625 0.316406 14.71875 -0.515625 C 13.882812 -1.359375 13.46875 -2.519531 13.46875 -4 L 13.46875 -99.703125 C 13.46875 -100.992188 13.929688 -102.082031 14.859375 -102.96875 C 15.796875 -103.851562 16.957031 -104.296875 18.34375 -104.296875 L 52.96875 -104.296875 C 63.8125 -104.296875 72.21875 -101.679688 78.1875 -96.453125 C 84.15625 -91.222656 87.140625 -83.828125 87.140625 -74.265625 C 87.140625 -64.597656 84.128906 -57.125 78.109375 -51.84375 C 72.097656 -46.570312 63.71875 -43.9375 52.96875 -43.9375 L 22.640625 -43.9375 L 22.640625 -4 C 22.640625 -2.519531 22.21875 -1.359375 21.375 -0.515625 C 20.539062 0.316406 19.429688 0.734375 18.046875 0.734375 Z M 52.375 -51.78125 C 69.4375 -51.78125 77.96875 -59.273438 77.96875 -74.265625 C 77.96875 -89.054688 69.4375 -96.453125 52.375 -96.453125 L 22.640625 -96.453125 L 22.640625 -51.78125 Z M 52.375 -51.78125 "/></g></g></g><g fill="#004aad" fill-opacity="1"><g transform="translate(583.981932, 468.338035)"><g><path d="M 45.265625 -73.234375 C 47.140625 -73.328125 48.472656 -73.078125 49.265625 -72.484375 C 50.054688 -71.898438 50.453125 -70.914062 50.453125 -69.53125 C 50.453125 -67.0625 48.972656 -65.679688 46.015625 -65.390625 L 41.578125 -64.9375 C 34.566406 -64.25 29.359375 -61.734375 25.953125 -57.390625 C 22.554688 -53.054688 20.859375 -47.976562 20.859375 -42.15625 L 20.859375 -3.84375 C 20.859375 -2.363281 20.460938 -1.226562 19.671875 -0.4375 C 18.890625 0.34375 17.804688 0.734375 16.421875 0.734375 C 15.035156 0.734375 13.921875 0.34375 13.078125 -0.4375 C 12.242188 -1.226562 11.828125 -2.363281 11.828125 -3.84375 L 11.828125 -68.640625 C 11.828125 -70.117188 12.242188 -71.253906 13.078125 -72.046875 C 13.921875 -72.835938 15.035156 -73.234375 16.421875 -73.234375 C 17.703125 -73.234375 18.738281 -72.835938 19.53125 -72.046875 C 20.320312 -71.253906 20.71875 -70.171875 20.71875 -68.796875 L 20.71875 -59.171875 C 24.757812 -67.648438 32.253906 -72.285156 43.203125 -73.078125 Z M 45.265625 -73.234375 "/></g></g></g><g fill="#004aad" fill-opacity="1"><g transform="translate(634.128863, 468.338035)"><g><path d="M 40.390625 1.03125 C 33.773438 1.03125 27.976562 -0.492188 23 -3.546875 C 18.019531 -6.609375 14.148438 -10.945312 11.390625 -16.5625 C 8.628906 -22.1875 7.25 -28.75 7.25 -36.25 C 7.25 -43.738281 8.628906 -50.296875 11.390625 -55.921875 C 14.148438 -61.546875 18.019531 -65.882812 23 -68.9375 C 27.976562 -72 33.773438 -73.53125 40.390625 -73.53125 C 46.898438 -73.53125 52.664062 -72 57.6875 -68.9375 C 62.71875 -65.882812 66.585938 -61.546875 69.296875 -55.921875 C 72.015625 -50.296875 73.375 -43.738281 73.375 -36.25 C 73.375 -28.75 72.015625 -22.1875 69.296875 -16.5625 C 66.585938 -10.945312 62.71875 -6.609375 57.6875 -3.546875 C 52.664062 -0.492188 46.898438 1.03125 40.390625 1.03125 Z M 40.234375 -6.953125 C 47.828125 -6.953125 53.695312 -9.46875 57.84375 -14.5 C 61.988281 -19.53125 64.0625 -26.78125 64.0625 -36.25 C 64.0625 -45.519531 61.960938 -52.742188 57.765625 -57.921875 C 53.578125 -63.097656 47.785156 -65.6875 40.390625 -65.6875 C 32.890625 -65.6875 27.066406 -63.097656 22.921875 -57.921875 C 18.785156 -52.742188 16.71875 -45.519531 16.71875 -36.25 C 16.71875 -26.78125 18.738281 -19.53125 22.78125 -14.5 C 26.820312 -9.46875 32.640625 -6.953125 40.234375 -6.953125 Z M 40.234375 -6.953125 "/></g></g></g><g fill="#004aad" fill-opacity="1"><g transform="translate(197.338573, 523.157394)"><g><path d="M 3.890625 0.046875 C 3.460938 0.046875 3.148438 -0.00390625 2.953125 -0.109375 C 2.765625 -0.222656 2.671875 -0.394531 2.671875 -0.625 L 2.671875 -20.890625 C 2.671875 -21.234375 2.742188 -21.472656 2.890625 -21.609375 C 3.035156 -21.742188 3.269531 -21.8125 3.59375 -21.8125 L 9.90625 -21.8125 C 11.726562 -21.8125 13.34375 -21.375 14.75 -20.5 C 16.164062 -19.632812 16.875 -18.039062 16.875 -15.71875 C 16.875 -13.988281 16.46875 -12.644531 15.65625 -11.6875 C 14.851562 -10.738281 13.945312 -10.101562 12.9375 -9.78125 C 11.9375 -9.457031 11.03125 -9.296875 10.21875 -9.296875 L 5.390625 -9.296875 L 5.390625 -0.625 C 5.390625 -0.394531 5.285156 -0.222656 5.078125 -0.109375 C 4.878906 -0.00390625 4.570312 0.046875 4.15625 0.046875 Z M 10.265625 -11.671875 C 10.785156 -11.671875 11.332031 -11.78125 11.90625 -12 C 12.476562 -12.226562 12.972656 -12.644531 13.390625 -13.25 C 13.816406 -13.851562 14.03125 -14.675781 14.03125 -15.71875 C 14.03125 -17.101562 13.617188 -18.070312 12.796875 -18.625 C 11.972656 -19.175781 10.984375 -19.453125 9.828125 -19.453125 L 5.390625 -19.453125 L 5.390625 -11.671875 Z M 10.265625 -11.671875 "/></g></g></g><g fill="#004aad" fill-opacity="1"><g transform="translate(215.116373, 523.157394)"><g><path d="M 4.0625 0.046875 C 3.625 0.046875 3.304688 -0.00390625 3.109375 -0.109375 C 2.910156 -0.222656 2.8125 -0.394531 2.8125 -0.625 L 2.8125 -11.578125 C 2.8125 -12.929688 2.742188 -13.910156 2.609375 -14.515625 C 2.484375 -15.117188 2.421875 -15.445312 2.421875 -15.5 C 2.421875 -15.757812 2.613281 -15.941406 3 -16.046875 C 3.394531 -16.160156 3.769531 -16.21875 4.125 -16.21875 C 4.40625 -16.21875 4.613281 -16.066406 4.75 -15.765625 C 4.894531 -15.472656 5.019531 -15.054688 5.125 -14.515625 L 5.203125 -14.15625 C 6.316406 -15.707031 7.523438 -16.484375 8.828125 -16.484375 C 9.421875 -16.484375 9.867188 -16.375 10.171875 -16.15625 C 10.472656 -15.945312 10.625 -15.660156 10.625 -15.296875 C 10.625 -14.941406 10.5625 -14.566406 10.4375 -14.171875 C 10.320312 -13.785156 10.179688 -13.59375 10.015625 -13.59375 C 9.929688 -13.59375 9.785156 -13.628906 9.578125 -13.703125 C 9.390625 -13.785156 9.203125 -13.84375 9.015625 -13.875 C 8.828125 -13.914062 8.585938 -13.9375 8.296875 -13.9375 C 7.816406 -13.9375 7.363281 -13.796875 6.9375 -13.515625 C 6.507812 -13.242188 6.148438 -12.9375 5.859375 -12.59375 C 5.566406 -12.25 5.421875 -12.0625 5.421875 -12.03125 L 5.421875 -0.625 C 5.421875 -0.394531 5.320312 -0.222656 5.125 -0.109375 C 4.925781 -0.00390625 4.613281 0.046875 4.1875 0.046875 Z M 4.0625 0.046875 "/></g></g></g><g fill="#004aad" fill-opacity="1"><g transform="translate(226.512399, 523.157394)"><g><path d="M 8.953125 0.171875 C 6.597656 0.171875 4.800781 -0.53125 3.5625 -1.9375 C 2.332031 -3.34375 1.71875 -5.390625 1.71875 -8.078125 C 1.71875 -10.773438 2.34375 -12.847656 3.59375 -14.296875 C 4.84375 -15.753906 6.628906 -16.484375 8.953125 -16.484375 C 11.242188 -16.484375 12.992188 -15.757812 14.203125 -14.3125 C 15.421875 -12.875 16.03125 -10.796875 16.03125 -8.078125 C 16.03125 -5.378906 15.429688 -3.328125 14.234375 -1.921875 C 13.035156 -0.523438 11.273438 0.171875 8.953125 0.171875 Z M 8.859375 -2.0625 C 10.378906 -2.0625 11.5 -2.554688 12.21875 -3.546875 C 12.945312 -4.535156 13.3125 -6.066406 13.3125 -8.140625 C 13.3125 -10.222656 12.945312 -11.757812 12.21875 -12.75 C 11.5 -13.75 10.378906 -14.25 8.859375 -14.25 C 7.347656 -14.25 6.234375 -13.753906 5.515625 -12.765625 C 4.804688 -11.773438 4.453125 -10.234375 4.453125 -8.140625 C 4.453125 -6.054688 4.804688 -4.519531 5.515625 -3.53125 C 6.222656 -2.550781 7.335938 -2.0625 8.859375 -2.0625 Z M 8.859375 -2.0625 "/></g></g></g><g fill="#004aad" fill-opacity="1"><g transform="translate(244.255135, 523.157394)"><g><path d="M 4.28125 -20.234375 C 3.4375 -20.234375 3.015625 -20.460938 3.015625 -20.921875 L 3.015625 -22.765625 C 3.015625 -23.222656 3.4375 -23.453125 4.28125 -23.453125 L 4.640625 -23.453125 C 5.472656 -23.453125 5.890625 -23.222656 5.890625 -22.765625 L 5.890625 -20.921875 C 5.890625 -20.460938 5.472656 -20.234375 4.640625 -20.234375 Z M 1.75 6.609375 C 0.21875 6.609375 -0.546875 6.300781 -0.546875 5.6875 C -0.546875 5.5625 -0.519531 5.378906 -0.46875 5.140625 C -0.414062 4.898438 -0.332031 4.679688 -0.21875 4.484375 C -0.113281 4.296875 0 4.203125 0.125 4.203125 C 0.195312 4.203125 0.34375 4.226562 0.5625 4.28125 C 0.78125 4.34375 1.082031 4.375 1.46875 4.375 C 1.988281 4.375 2.394531 4.207031 2.6875 3.875 C 2.988281 3.539062 3.140625 2.9375 3.140625 2.0625 L 3.140625 -15.6875 C 3.140625 -16.132812 3.5625 -16.359375 4.40625 -16.359375 L 4.53125 -16.359375 C 5.351562 -16.359375 5.765625 -16.132812 5.765625 -15.6875 L 5.765625 2.296875 C 5.765625 3.910156 5.351562 5.03125 4.53125 5.65625 C 3.71875 6.289062 2.789062 6.609375 1.75 6.609375 Z M 1.75 6.609375 "/></g></g></g><g fill="#004aad" fill-opacity="1"><g transform="translate(252.863518, 523.157394)"><g><path d="M 9.359375 0.171875 C 6.773438 0.171875 4.851562 -0.5 3.59375 -1.84375 C 2.34375 -3.195312 1.71875 -5.265625 1.71875 -8.046875 C 1.71875 -10.804688 2.332031 -12.898438 3.5625 -14.328125 C 4.789062 -15.765625 6.597656 -16.484375 8.984375 -16.484375 C 11.109375 -16.484375 12.710938 -15.789062 13.796875 -14.40625 C 14.878906 -13.03125 15.421875 -11.007812 15.421875 -8.34375 C 15.421875 -8.226562 15.359375 -8.066406 15.234375 -7.859375 C 15.109375 -7.660156 14.960938 -7.484375 14.796875 -7.328125 C 14.628906 -7.171875 14.484375 -7.09375 14.359375 -7.09375 L 4.53125 -7.09375 C 4.65625 -5.34375 5.097656 -4.066406 5.859375 -3.265625 C 6.628906 -2.460938 7.785156 -2.0625 9.328125 -2.0625 C 10.191406 -2.0625 10.9375 -2.164062 11.5625 -2.375 C 12.1875 -2.59375 12.796875 -2.851562 13.390625 -3.15625 C 13.441406 -3.175781 13.523438 -3.21875 13.640625 -3.28125 C 13.765625 -3.34375 13.847656 -3.375 13.890625 -3.375 C 14.015625 -3.375 14.160156 -3.269531 14.328125 -3.0625 C 14.503906 -2.851562 14.65625 -2.625 14.78125 -2.375 C 14.90625 -2.125 14.96875 -1.941406 14.96875 -1.828125 C 14.96875 -1.566406 14.707031 -1.273438 14.1875 -0.953125 C 13.675781 -0.640625 12.988281 -0.375 12.125 -0.15625 C 11.269531 0.0625 10.347656 0.171875 9.359375 0.171875 Z M 12.625 -9.328125 C 12.625 -12.609375 11.378906 -14.25 8.890625 -14.25 C 6.210938 -14.25 4.757812 -12.609375 4.53125 -9.328125 Z M 12.625 -9.328125 "/></g></g></g><g fill="#004aad" fill-opacity="1"><g transform="translate(269.677039, 523.157394)"><g><path d="M 9.296875 0.171875 C 6.710938 0.171875 4.785156 -0.488281 3.515625 -1.8125 C 2.242188 -3.144531 1.609375 -5.28125 1.609375 -8.21875 C 1.609375 -11.207031 2.316406 -13.332031 3.734375 -14.59375 C 5.148438 -15.851562 6.910156 -16.484375 9.015625 -16.484375 C 9.796875 -16.484375 10.546875 -16.414062 11.265625 -16.28125 C 11.992188 -16.144531 12.582031 -15.96875 13.03125 -15.75 C 13.476562 -15.53125 13.703125 -15.296875 13.703125 -15.046875 C 13.703125 -14.878906 13.644531 -14.660156 13.53125 -14.390625 C 13.414062 -14.128906 13.28125 -13.894531 13.125 -13.6875 C 12.96875 -13.488281 12.828125 -13.390625 12.703125 -13.390625 C 12.660156 -13.390625 12.601562 -13.398438 12.53125 -13.421875 C 12.46875 -13.453125 12.40625 -13.476562 12.34375 -13.5 C 11.289062 -14 10.160156 -14.25 8.953125 -14.25 C 7.503906 -14.25 6.390625 -13.773438 5.609375 -12.828125 C 4.828125 -11.890625 4.4375 -10.378906 4.4375 -8.296875 C 4.4375 -6.828125 4.59375 -5.640625 4.90625 -4.734375 C 5.226562 -3.828125 5.738281 -3.15625 6.4375 -2.71875 C 7.144531 -2.28125 8.09375 -2.0625 9.28125 -2.0625 C 10.570312 -2.0625 11.738281 -2.332031 12.78125 -2.875 C 12.882812 -2.894531 12.960938 -2.921875 13.015625 -2.953125 C 13.078125 -2.984375 13.117188 -3 13.140625 -3 C 13.265625 -3 13.410156 -2.898438 13.578125 -2.703125 C 13.742188 -2.503906 13.882812 -2.273438 14 -2.015625 C 14.125 -1.753906 14.1875 -1.550781 14.1875 -1.40625 C 14.1875 -1.15625 13.960938 -0.90625 13.515625 -0.65625 C 13.078125 -0.414062 12.476562 -0.21875 11.71875 -0.0625 C 10.96875 0.09375 10.160156 0.171875 9.296875 0.171875 Z M 9.296875 0.171875 "/></g></g></g><g fill="#004aad" fill-opacity="1"><g transform="translate(284.789923, 523.157394)"><g><path d="M 7.359375 0.171875 C 6.328125 0.171875 5.398438 -0.140625 4.578125 -0.765625 C 3.753906 -1.398438 3.34375 -2.519531 3.34375 -4.125 L 3.34375 -14.0625 L 1.796875 -14.0625 C 1.566406 -14.0625 1.398438 -14.132812 1.296875 -14.28125 C 1.203125 -14.425781 1.15625 -14.664062 1.15625 -15 L 1.15625 -15.375 C 1.15625 -15.707031 1.203125 -15.945312 1.296875 -16.09375 C 1.398438 -16.238281 1.566406 -16.3125 1.796875 -16.3125 L 3.34375 -16.3125 L 3.71875 -19.578125 C 3.738281 -20.035156 4.070312 -20.265625 4.71875 -20.265625 L 5.015625 -20.265625 C 5.335938 -20.265625 5.578125 -20.207031 5.734375 -20.09375 C 5.890625 -19.976562 5.96875 -19.804688 5.96875 -19.578125 L 5.96875 -16.3125 L 8.578125 -16.3125 C 8.796875 -16.3125 8.953125 -16.238281 9.046875 -16.09375 C 9.148438 -15.945312 9.203125 -15.707031 9.203125 -15.375 L 9.203125 -15 C 9.203125 -14.664062 9.148438 -14.425781 9.046875 -14.28125 C 8.953125 -14.132812 8.796875 -14.0625 8.578125 -14.0625 L 5.96875 -14.0625 L 5.96875 -4.375 C 5.96875 -3.519531 6.113281 -2.921875 6.40625 -2.578125 C 6.707031 -2.234375 7.113281 -2.0625 7.625 -2.0625 C 8.019531 -2.0625 8.328125 -2.082031 8.546875 -2.125 C 8.765625 -2.175781 8.910156 -2.203125 8.984375 -2.203125 C 9.171875 -2.203125 9.320312 -2.015625 9.4375 -1.640625 C 9.5625 -1.273438 9.625 -0.976562 9.625 -0.75 C 9.625 -0.132812 8.867188 0.171875 7.359375 0.171875 Z M 7.359375 0.171875 "/></g></g></g><g fill="#004aad" fill-opacity="1"><g transform="translate(295.467123, 523.157394)"><g/></g></g><g fill="#004aad" fill-opacity="1"><g transform="translate(302.953436, 523.157394)"><g><path d="M 4.0625 0.046875 C 3.625 0.046875 3.304688 -0.00390625 3.109375 -0.109375 C 2.910156 -0.222656 2.8125 -0.394531 2.8125 -0.625 L 2.8125 -21.203125 C 2.8125 -21.671875 3.226562 -21.90625 4.0625 -21.90625 L 5.171875 -21.90625 C 5.859375 -21.90625 6.296875 -21.710938 6.484375 -21.328125 L 12.390625 -11.109375 L 13.1875 -9.140625 L 14 -10.921875 L 19.90625 -21.328125 C 20.101562 -21.710938 20.535156 -21.90625 21.203125 -21.90625 L 22.234375 -21.90625 C 23.066406 -21.90625 23.484375 -21.671875 23.484375 -21.203125 L 23.484375 -0.625 C 23.484375 -0.175781 23.066406 0.046875 22.234375 0.046875 L 22.03125 0.046875 C 21.582031 0.046875 21.257812 -0.00390625 21.0625 -0.109375 C 20.863281 -0.222656 20.765625 -0.394531 20.765625 -0.625 L 20.765625 -17.421875 L 20.71875 -17.28125 L 14.5 -6.484375 C 14.414062 -6.347656 14.320312 -6.25 14.21875 -6.1875 C 14.113281 -6.125 13.984375 -6.09375 13.828125 -6.09375 L 12.578125 -6.09375 C 12.265625 -6.09375 12.03125 -6.222656 11.875 -6.484375 L 5.53125 -17.59375 L 5.53125 -0.625 C 5.53125 -0.175781 5.113281 0.046875 4.28125 0.046875 Z M 4.0625 0.046875 "/></g></g></g><g fill="#004aad" fill-opacity="1"><g transform="translate(329.216892, 523.157394)"><g><path d="M 6.859375 0.171875 C 5.265625 0.171875 3.976562 -0.21875 3 -1 C 2.019531 -1.78125 1.53125 -2.941406 1.53125 -4.484375 C 1.53125 -6.109375 2.023438 -7.332031 3.015625 -8.15625 C 4.003906 -8.988281 5.21875 -9.523438 6.65625 -9.765625 C 8.09375 -10.003906 9.832031 -10.140625 11.875 -10.171875 L 11.875 -11.640625 C 11.875 -12.429688 11.609375 -13.0625 11.078125 -13.53125 C 10.546875 -14.007812 9.671875 -14.25 8.453125 -14.25 C 7.523438 -14.25 6.710938 -14.140625 6.015625 -13.921875 C 5.328125 -13.703125 4.675781 -13.441406 4.0625 -13.140625 C 3.8125 -13.003906 3.65625 -12.9375 3.59375 -12.9375 C 3.457031 -12.9375 3.300781 -13.039062 3.125 -13.25 C 2.957031 -13.457031 2.8125 -13.6875 2.6875 -13.9375 C 2.570312 -14.195312 2.515625 -14.382812 2.515625 -14.5 C 2.515625 -14.769531 2.789062 -15.0625 3.34375 -15.375 C 3.894531 -15.695312 4.617188 -15.960938 5.515625 -16.171875 C 6.421875 -16.378906 7.363281 -16.484375 8.34375 -16.484375 C 10.300781 -16.484375 11.816406 -16.054688 12.890625 -15.203125 C 13.960938 -14.347656 14.5 -13.148438 14.5 -11.609375 L 14.5 -4.609375 C 14.5 -3.253906 14.5625 -2.273438 14.6875 -1.671875 C 14.8125 -1.066406 14.875 -0.738281 14.875 -0.6875 C 14.875 -0.425781 14.675781 -0.238281 14.28125 -0.125 C 13.894531 -0.0195312 13.53125 0.03125 13.1875 0.03125 C 12.90625 0.03125 12.695312 -0.125 12.5625 -0.4375 C 12.425781 -0.75 12.296875 -1.207031 12.171875 -1.8125 L 12.109375 -2.15625 C 11.460938 -1.445312 10.703125 -0.878906 9.828125 -0.453125 C 8.960938 -0.0351562 7.972656 0.171875 6.859375 0.171875 Z M 7 -2.09375 C 8.03125 -2.09375 8.90625 -2.273438 9.625 -2.640625 C 10.351562 -3.015625 11.101562 -3.550781 11.875 -4.25 L 11.875 -7.921875 C 10.332031 -7.910156 9.0625 -7.847656 8.0625 -7.734375 C 7.070312 -7.617188 6.203125 -7.320312 5.453125 -6.84375 C 4.703125 -6.375 4.328125 -5.640625 4.328125 -4.640625 C 4.328125 -3.816406 4.550781 -3.1875 5 -2.75 C 5.457031 -2.3125 6.125 -2.09375 7 -2.09375 Z M 7 -2.09375 "/></g></g></g><g fill="#004aad" fill-opacity="1"><g transform="translate(346.205737, 523.157394)"><g><path d="M 3.953125 0.046875 C 3.503906 0.046875 3.179688 -0.00390625 2.984375 -0.109375 C 2.785156 -0.222656 2.6875 -0.394531 2.6875 -0.625 L 2.6875 -11.578125 C 2.6875 -12.929688 2.617188 -13.910156 2.484375 -14.515625 C 2.359375 -15.117188 2.296875 -15.445312 2.296875 -15.5 C 2.296875 -15.757812 2.488281 -15.941406 2.875 -16.046875 C 3.269531 -16.160156 3.644531 -16.21875 4 -16.21875 C 4.289062 -16.21875 4.503906 -16.0625 4.640625 -15.75 C 4.785156 -15.4375 4.890625 -15.113281 4.953125 -14.78125 C 5.015625 -14.457031 5.0625 -14.25 5.09375 -14.15625 C 5.738281 -14.894531 6.488281 -15.46875 7.34375 -15.875 C 8.207031 -16.28125 9.082031 -16.484375 9.96875 -16.484375 C 11.550781 -16.484375 12.789062 -16.035156 13.6875 -15.140625 C 14.582031 -14.242188 15.03125 -13.015625 15.03125 -11.453125 L 15.03125 -0.625 C 15.03125 -0.394531 14.929688 -0.222656 14.734375 -0.109375 C 14.535156 -0.00390625 14.21875 0.046875 13.78125 0.046875 L 13.640625 0.046875 C 13.222656 0.046875 12.914062 -0.00390625 12.71875 -0.109375 C 12.519531 -0.222656 12.421875 -0.394531 12.421875 -0.625 L 12.421875 -11.1875 C 12.421875 -12.144531 12.140625 -12.890625 11.578125 -13.421875 C 11.023438 -13.953125 10.25 -14.21875 9.25 -14.21875 C 8.539062 -14.21875 7.832031 -14.019531 7.125 -13.625 C 6.414062 -13.238281 5.804688 -12.707031 5.296875 -12.03125 L 5.296875 -0.625 C 5.296875 -0.394531 5.195312 -0.222656 5 -0.109375 C 4.800781 -0.00390625 4.488281 0.046875 4.0625 0.046875 Z M 3.953125 0.046875 "/></g></g></g><g fill="#004aad" fill-opacity="1"><g transform="translate(363.562761, 523.157394)"><g><path d="M 6.859375 0.171875 C 5.265625 0.171875 3.976562 -0.21875 3 -1 C 2.019531 -1.78125 1.53125 -2.941406 1.53125 -4.484375 C 1.53125 -6.109375 2.023438 -7.332031 3.015625 -8.15625 C 4.003906 -8.988281 5.21875 -9.523438 6.65625 -9.765625 C 8.09375 -10.003906 9.832031 -10.140625 11.875 -10.171875 L 11.875 -11.640625 C 11.875 -12.429688 11.609375 -13.0625 11.078125 -13.53125 C 10.546875 -14.007812 9.671875 -14.25 8.453125 -14.25 C 7.523438 -14.25 6.710938 -14.140625 6.015625 -13.921875 C 5.328125 -13.703125 4.675781 -13.441406 4.0625 -13.140625 C 3.8125 -13.003906 3.65625 -12.9375 3.59375 -12.9375 C 3.457031 -12.9375 3.300781 -13.039062 3.125 -13.25 C 2.957031 -13.457031 2.8125 -13.6875 2.6875 -13.9375 C 2.570312 -14.195312 2.515625 -14.382812 2.515625 -14.5 C 2.515625 -14.769531 2.789062 -15.0625 3.34375 -15.375 C 3.894531 -15.695312 4.617188 -15.960938 5.515625 -16.171875 C 6.421875 -16.378906 7.363281 -16.484375 8.34375 -16.484375 C 10.300781 -16.484375 11.816406 -16.054688 12.890625 -15.203125 C 13.960938 -14.347656 14.5 -13.148438 14.5 -11.609375 L 14.5 -4.609375 C 14.5 -3.253906 14.5625 -2.273438 14.6875 -1.671875 C 14.8125 -1.066406 14.875 -0.738281 14.875 -0.6875 C 14.875 -0.425781 14.675781 -0.238281 14.28125 -0.125 C 13.894531 -0.0195312 13.53125 0.03125 13.1875 0.03125 C 12.90625 0.03125 12.695312 -0.125 12.5625 -0.4375 C 12.425781 -0.75 12.296875 -1.207031 12.171875 -1.8125 L 12.109375 -2.15625 C 11.460938 -1.445312 10.703125 -0.878906 9.828125 -0.453125 C 8.960938 -0.0351562 7.972656 0.171875 6.859375 0.171875 Z M 7 -2.09375 C 8.03125 -2.09375 8.90625 -2.273438 9.625 -2.640625 C 10.351562 -3.015625 11.101562 -3.550781 11.875 -4.25 L 11.875 -7.921875 C 10.332031 -7.910156 9.0625 -7.847656 8.0625 -7.734375 C 7.070312 -7.617188 6.203125 -7.320312 5.453125 -6.84375 C 4.703125 -6.375 4.328125 -5.640625 4.328125 -4.640625 C 4.328125 -3.816406 4.550781 -3.1875 5 -2.75 C 5.457031 -2.3125 6.125 -2.09375 7 -2.09375 Z M 7 -2.09375 "/></g></g></g><g fill="#004aad" fill-opacity="1"><g transform="translate(380.551606, 523.157394)"><g><path d="M 7.890625 6.609375 C 5.898438 6.609375 4.328125 6.296875 3.171875 5.671875 C 2.015625 5.054688 1.4375 4.082031 1.4375 2.75 C 1.4375 1.84375 1.695312 1.046875 2.21875 0.359375 C 2.75 -0.316406 3.4375 -0.820312 4.28125 -1.15625 L 4.3125 -1.234375 C 3.90625 -1.546875 3.59375 -1.90625 3.375 -2.3125 C 3.15625 -2.71875 3.046875 -3.203125 3.046875 -3.765625 C 3.046875 -5.128906 3.632812 -6.21875 4.8125 -7.03125 C 3.925781 -7.457031 3.253906 -8.050781 2.796875 -8.8125 C 2.347656 -9.582031 2.125 -10.445312 2.125 -11.40625 C 2.125 -12.363281 2.359375 -13.226562 2.828125 -14 C 3.304688 -14.769531 4.003906 -15.375 4.921875 -15.8125 C 5.847656 -16.257812 6.960938 -16.484375 8.265625 -16.484375 C 8.953125 -16.484375 9.566406 -16.425781 10.109375 -16.3125 L 15.765625 -16.3125 C 15.992188 -16.3125 16.15625 -16.238281 16.25 -16.09375 C 16.351562 -15.945312 16.40625 -15.707031 16.40625 -15.375 L 16.40625 -15 C 16.40625 -14.664062 16.351562 -14.425781 16.25 -14.28125 C 16.15625 -14.132812 15.992188 -14.0625 15.765625 -14.0625 C 14.984375 -14.0625 14.257812 -14.09375 13.59375 -14.15625 L 13.5625 -14.109375 C 13.832031 -13.734375 14.03125 -13.3125 14.15625 -12.84375 C 14.289062 -12.382812 14.359375 -11.90625 14.359375 -11.40625 C 14.359375 -10.445312 14.117188 -9.578125 13.640625 -8.796875 C 13.171875 -8.023438 12.476562 -7.414062 11.5625 -6.96875 C 10.644531 -6.53125 9.53125 -6.3125 8.21875 -6.3125 C 7.238281 -6.28125 6.5 -6.097656 6 -5.765625 C 5.507812 -5.441406 5.265625 -4.90625 5.265625 -4.15625 C 5.265625 -3.601562 5.441406 -3.179688 5.796875 -2.890625 C 6.148438 -2.597656 6.597656 -2.394531 7.140625 -2.28125 C 7.679688 -2.164062 8.429688 -2.054688 9.390625 -1.953125 L 10.296875 -1.84375 C 11.265625 -1.71875 12.078125 -1.539062 12.734375 -1.3125 C 13.390625 -1.09375 13.929688 -0.722656 14.359375 -0.203125 C 14.785156 0.304688 15 1.007812 15 1.90625 C 15 3.414062 14.394531 4.578125 13.1875 5.390625 C 11.988281 6.203125 10.222656 6.609375 7.890625 6.609375 Z M 8.21875 -8.390625 C 9.363281 -8.390625 10.273438 -8.617188 10.953125 -9.078125 C 11.640625 -9.546875 11.984375 -10.316406 11.984375 -11.390625 C 11.984375 -13.398438 10.726562 -14.40625 8.21875 -14.40625 C 5.757812 -14.40625 4.53125 -13.398438 4.53125 -11.390625 C 4.53125 -10.316406 4.863281 -9.546875 5.53125 -9.078125 C 6.207031 -8.617188 7.101562 -8.390625 8.21875 -8.390625 Z M 8.21875 4.484375 C 9.675781 4.484375 10.753906 4.289062 11.453125 3.90625 C 12.148438 3.53125 12.5 2.957031 12.5 2.1875 C 12.5 1.6875 12.3125 1.296875 11.9375 1.015625 C 11.570312 0.742188 11.113281 0.550781 10.5625 0.4375 C 10.019531 0.332031 9.304688 0.234375 8.421875 0.140625 C 7.804688 0.0664062 7.300781 0.00390625 6.90625 -0.046875 C 6.519531 -0.109375 6.164062 -0.191406 5.84375 -0.296875 C 4.457031 0.285156 3.765625 1.132812 3.765625 2.25 C 3.765625 3.738281 5.25 4.484375 8.21875 4.484375 Z M 8.21875 4.484375 "/></g></g></g><g fill="#004aad" fill-opacity="1"><g transform="translate(397.575515, 523.157394)"><g><path d="M 9.359375 0.171875 C 6.773438 0.171875 4.851562 -0.5 3.59375 -1.84375 C 2.34375 -3.195312 1.71875 -5.265625 1.71875 -8.046875 C 1.71875 -10.804688 2.332031 -12.898438 3.5625 -14.328125 C 4.789062 -15.765625 6.597656 -16.484375 8.984375 -16.484375 C 11.109375 -16.484375 12.710938 -15.789062 13.796875 -14.40625 C 14.878906 -13.03125 15.421875 -11.007812 15.421875 -8.34375 C 15.421875 -8.226562 15.359375 -8.066406 15.234375 -7.859375 C 15.109375 -7.660156 14.960938 -7.484375 14.796875 -7.328125 C 14.628906 -7.171875 14.484375 -7.09375 14.359375 -7.09375 L 4.53125 -7.09375 C 4.65625 -5.34375 5.097656 -4.066406 5.859375 -3.265625 C 6.628906 -2.460938 7.785156 -2.0625 9.328125 -2.0625 C 10.191406 -2.0625 10.9375 -2.164062 11.5625 -2.375 C 12.1875 -2.59375 12.796875 -2.851562 13.390625 -3.15625 C 13.441406 -3.175781 13.523438 -3.21875 13.640625 -3.28125 C 13.765625 -3.34375 13.847656 -3.375 13.890625 -3.375 C 14.015625 -3.375 14.160156 -3.269531 14.328125 -3.0625 C 14.503906 -2.851562 14.65625 -2.625 14.78125 -2.375 C 14.90625 -2.125 14.96875 -1.941406 14.96875 -1.828125 C 14.96875 -1.566406 14.707031 -1.273438 14.1875 -0.953125 C 13.675781 -0.640625 12.988281 -0.375 12.125 -0.15625 C 11.269531 0.0625 10.347656 0.171875 9.359375 0.171875 Z M 12.625 -9.328125 C 12.625 -12.609375 11.378906 -14.25 8.890625 -14.25 C 6.210938 -14.25 4.757812 -12.609375 4.53125 -9.328125 Z M 12.625 -9.328125 "/></g></g></g><g fill="#004aad" fill-opacity="1"><g transform="translate(414.389037, 523.157394)"><g><path d="M 19.203125 -16.484375 C 20.503906 -16.484375 21.644531 -16.113281 22.625 -15.375 C 23.601562 -14.644531 24.09375 -13.335938 24.09375 -11.453125 L 24.09375 -0.625 C 24.09375 -0.394531 23.992188 -0.222656 23.796875 -0.109375 C 23.597656 -0.00390625 23.285156 0.046875 22.859375 0.046875 L 22.75 0.046875 C 22.300781 0.046875 21.976562 -0.00390625 21.78125 -0.109375 C 21.582031 -0.222656 21.484375 -0.394531 21.484375 -0.625 L 21.484375 -11.1875 C 21.484375 -12.132812 21.226562 -12.875 20.71875 -13.40625 C 20.207031 -13.945312 19.460938 -14.21875 18.484375 -14.21875 C 17.671875 -14.21875 16.9375 -13.984375 16.28125 -13.515625 C 15.632812 -13.054688 15.09375 -12.5625 14.65625 -12.03125 C 14.6875 -11.894531 14.703125 -11.6875 14.703125 -11.40625 L 14.703125 -0.625 C 14.703125 -0.175781 14.28125 0.046875 13.4375 0.046875 L 13.3125 0.046875 C 12.476562 0.046875 12.0625 -0.175781 12.0625 -0.625 L 12.0625 -11.1875 C 12.0625 -12.132812 11.804688 -12.875 11.296875 -13.40625 C 10.796875 -13.945312 10.050781 -14.21875 9.0625 -14.21875 C 8.382812 -14.21875 7.765625 -14.054688 7.203125 -13.734375 C 6.640625 -13.421875 6.175781 -13.078125 5.8125 -12.703125 C 5.445312 -12.328125 5.265625 -12.113281 5.265625 -12.0625 L 5.265625 -0.625 C 5.265625 -0.394531 5.164062 -0.222656 4.96875 -0.109375 C 4.78125 -0.00390625 4.46875 0.046875 4.03125 0.046875 L 3.890625 0.046875 C 3.460938 0.046875 3.148438 -0.00390625 2.953125 -0.109375 C 2.765625 -0.222656 2.671875 -0.394531 2.671875 -0.625 L 2.671875 -11.578125 C 2.671875 -12.929688 2.601562 -13.910156 2.46875 -14.515625 C 2.34375 -15.117188 2.28125 -15.445312 2.28125 -15.5 C 2.28125 -15.757812 2.472656 -15.941406 2.859375 -16.046875 C 3.253906 -16.160156 3.625 -16.21875 3.96875 -16.21875 C 4.257812 -16.21875 4.472656 -16.0625 4.609375 -15.75 C 4.753906 -15.4375 4.859375 -15.113281 4.921875 -14.78125 C 4.984375 -14.457031 5.023438 -14.25 5.046875 -14.15625 C 5.617188 -14.820312 6.320312 -15.375 7.15625 -15.8125 C 7.988281 -16.257812 8.863281 -16.484375 9.78125 -16.484375 C 10.726562 -16.484375 11.609375 -16.289062 12.421875 -15.90625 C 13.242188 -15.53125 13.851562 -14.863281 14.25 -13.90625 C 14.882812 -14.664062 15.632812 -15.285156 16.5 -15.765625 C 17.363281 -16.242188 18.265625 -16.484375 19.203125 -16.484375 Z M 19.203125 -16.484375 "/></g></g></g><g fill="#004aad" fill-opacity="1"><g transform="translate(440.827817, 523.157394)"><g><path d="M 9.359375 0.171875 C 6.773438 0.171875 4.851562 -0.5 3.59375 -1.84375 C 2.34375 -3.195312 1.71875 -5.265625 1.71875 -8.046875 C 1.71875 -10.804688 2.332031 -12.898438 3.5625 -14.328125 C 4.789062 -15.765625 6.597656 -16.484375 8.984375 -16.484375 C 11.109375 -16.484375 12.710938 -15.789062 13.796875 -14.40625 C 14.878906 -13.03125 15.421875 -11.007812 15.421875 -8.34375 C 15.421875 -8.226562 15.359375 -8.066406 15.234375 -7.859375 C 15.109375 -7.660156 14.960938 -7.484375 14.796875 -7.328125 C 14.628906 -7.171875 14.484375 -7.09375 14.359375 -7.09375 L 4.53125 -7.09375 C 4.65625 -5.34375 5.097656 -4.066406 5.859375 -3.265625 C 6.628906 -2.460938 7.785156 -2.0625 9.328125 -2.0625 C 10.191406 -2.0625 10.9375 -2.164062 11.5625 -2.375 C 12.1875 -2.59375 12.796875 -2.851562 13.390625 -3.15625 C 13.441406 -3.175781 13.523438 -3.21875 13.640625 -3.28125 C 13.765625 -3.34375 13.847656 -3.375 13.890625 -3.375 C 14.015625 -3.375 14.160156 -3.269531 14.328125 -3.0625 C 14.503906 -2.851562 14.65625 -2.625 14.78125 -2.375 C 14.90625 -2.125 14.96875 -1.941406 14.96875 -1.828125 C 14.96875 -1.566406 14.707031 -1.273438 14.1875 -0.953125 C 13.675781 -0.640625 12.988281 -0.375 12.125 -0.15625 C 11.269531 0.0625 10.347656 0.171875 9.359375 0.171875 Z M 12.625 -9.328125 C 12.625 -12.609375 11.378906 -14.25 8.890625 -14.25 C 6.210938 -14.25 4.757812 -12.609375 4.53125 -9.328125 Z M 12.625 -9.328125 "/></g></g></g><g fill="#004aad" fill-opacity="1"><g transform="translate(457.641339, 523.157394)"><g><path d="M 3.953125 0.046875 C 3.503906 0.046875 3.179688 -0.00390625 2.984375 -0.109375 C 2.785156 -0.222656 2.6875 -0.394531 2.6875 -0.625 L 2.6875 -11.578125 C 2.6875 -12.929688 2.617188 -13.910156 2.484375 -14.515625 C 2.359375 -15.117188 2.296875 -15.445312 2.296875 -15.5 C 2.296875 -15.757812 2.488281 -15.941406 2.875 -16.046875 C 3.269531 -16.160156 3.644531 -16.21875 4 -16.21875 C 4.289062 -16.21875 4.503906 -16.0625 4.640625 -15.75 C 4.785156 -15.4375 4.890625 -15.113281 4.953125 -14.78125 C 5.015625 -14.457031 5.0625 -14.25 5.09375 -14.15625 C 5.738281 -14.894531 6.488281 -15.46875 7.34375 -15.875 C 8.207031 -16.28125 9.082031 -16.484375 9.96875 -16.484375 C 11.550781 -16.484375 12.789062 -16.035156 13.6875 -15.140625 C 14.582031 -14.242188 15.03125 -13.015625 15.03125 -11.453125 L 15.03125 -0.625 C 15.03125 -0.394531 14.929688 -0.222656 14.734375 -0.109375 C 14.535156 -0.00390625 14.21875 0.046875 13.78125 0.046875 L 13.640625 0.046875 C 13.222656 0.046875 12.914062 -0.00390625 12.71875 -0.109375 C 12.519531 -0.222656 12.421875 -0.394531 12.421875 -0.625 L 12.421875 -11.1875 C 12.421875 -12.144531 12.140625 -12.890625 11.578125 -13.421875 C 11.023438 -13.953125 10.25 -14.21875 9.25 -14.21875 C 8.539062 -14.21875 7.832031 -14.019531 7.125 -13.625 C 6.414062 -13.238281 5.804688 -12.707031 5.296875 -12.03125 L 5.296875 -0.625 C 5.296875 -0.394531 5.195312 -0.222656 5 -0.109375 C 4.800781 -0.00390625 4.488281 0.046875 4.0625 0.046875 Z M 3.953125 0.046875 "/></g></g></g><g fill="#004aad" fill-opacity="1"><g transform="translate(474.998363, 523.157394)"><g><path d="M 7.359375 0.171875 C 6.328125 0.171875 5.398438 -0.140625 4.578125 -0.765625 C 3.753906 -1.398438 3.34375 -2.519531 3.34375 -4.125 L 3.34375 -14.0625 L 1.796875 -14.0625 C 1.566406 -14.0625 1.398438 -14.132812 1.296875 -14.28125 C 1.203125 -14.425781 1.15625 -14.664062 1.15625 -15 L 1.15625 -15.375 C 1.15625 -15.707031 1.203125 -15.945312 1.296875 -16.09375 C 1.398438 -16.238281 1.566406 -16.3125 1.796875 -16.3125 L 3.34375 -16.3125 L 3.71875 -19.578125 C 3.738281 -20.035156 4.070312 -20.265625 4.71875 -20.265625 L 5.015625 -20.265625 C 5.335938 -20.265625 5.578125 -20.207031 5.734375 -20.09375 C 5.890625 -19.976562 5.96875 -19.804688 5.96875 -19.578125 L 5.96875 -16.3125 L 8.578125 -16.3125 C 8.796875 -16.3125 8.953125 -16.238281 9.046875 -16.09375 C 9.148438 -15.945312 9.203125 -15.707031 9.203125 -15.375 L 9.203125 -15 C 9.203125 -14.664062 9.148438 -14.425781 9.046875 -14.28125 C 8.953125 -14.132812 8.796875 -14.0625 8.578125 -14.0625 L 5.96875 -14.0625 L 5.96875 -4.375 C 5.96875 -3.519531 6.113281 -2.921875 6.40625 -2.578125 C 6.707031 -2.234375 7.113281 -2.0625 7.625 -2.0625 C 8.019531 -2.0625 8.328125 -2.082031 8.546875 -2.125 C 8.765625 -2.175781 8.910156 -2.203125 8.984375 -2.203125 C 9.171875 -2.203125 9.320312 -2.015625 9.4375 -1.640625 C 9.5625 -1.273438 9.625 -0.976562 9.625 -0.75 C 9.625 -0.132812 8.867188 0.171875 7.359375 0.171875 Z M 7.359375 0.171875 "/></g></g></g><g fill="#004aad" fill-opacity="1"><g transform="translate(485.675563, 523.157394)"><g/></g></g><g fill="#004aad" fill-opacity="1"><g transform="translate(493.161875, 523.157394)"><g><path d="M 8.484375 0.046875 C 8.054688 0.046875 7.742188 -0.00390625 7.546875 -0.109375 C 7.347656 -0.222656 7.25 -0.394531 7.25 -0.625 L 7.25 -19.453125 L 1.25 -19.453125 C 1.019531 -19.453125 0.859375 -19.523438 0.765625 -19.671875 C 0.671875 -19.828125 0.625 -20.0625 0.625 -20.375 L 0.625 -20.890625 C 0.625 -21.210938 0.671875 -21.445312 0.765625 -21.59375 C 0.859375 -21.738281 1.019531 -21.8125 1.25 -21.8125 L 15.875 -21.8125 C 16.09375 -21.8125 16.25 -21.738281 16.34375 -21.59375 C 16.4375 -21.445312 16.484375 -21.210938 16.484375 -20.890625 L 16.484375 -20.375 C 16.484375 -20.0625 16.4375 -19.828125 16.34375 -19.671875 C 16.25 -19.523438 16.09375 -19.453125 15.875 -19.453125 L 10 -19.453125 L 10 -0.625 C 10 -0.175781 9.578125 0.046875 8.734375 0.046875 Z M 8.484375 0.046875 "/></g></g></g><g fill="#004aad" fill-opacity="1"><g transform="translate(510.273447, 523.157394)"><g><path d="M 4.0625 0.046875 C 3.625 0.046875 3.304688 -0.00390625 3.109375 -0.109375 C 2.910156 -0.222656 2.8125 -0.394531 2.8125 -0.625 L 2.8125 -11.578125 C 2.8125 -12.929688 2.742188 -13.910156 2.609375 -14.515625 C 2.484375 -15.117188 2.421875 -15.445312 2.421875 -15.5 C 2.421875 -15.757812 2.613281 -15.941406 3 -16.046875 C 3.394531 -16.160156 3.769531 -16.21875 4.125 -16.21875 C 4.40625 -16.21875 4.613281 -16.066406 4.75 -15.765625 C 4.894531 -15.472656 5.019531 -15.054688 5.125 -14.515625 L 5.203125 -14.15625 C 6.316406 -15.707031 7.523438 -16.484375 8.828125 -16.484375 C 9.421875 -16.484375 9.867188 -16.375 10.171875 -16.15625 C 10.472656 -15.945312 10.625 -15.660156 10.625 -15.296875 C 10.625 -14.941406 10.5625 -14.566406 10.4375 -14.171875 C 10.320312 -13.785156 10.179688 -13.59375 10.015625 -13.59375 C 9.929688 -13.59375 9.785156 -13.628906 9.578125 -13.703125 C 9.390625 -13.785156 9.203125 -13.84375 9.015625 -13.875 C 8.828125 -13.914062 8.585938 -13.9375 8.296875 -13.9375 C 7.816406 -13.9375 7.363281 -13.796875 6.9375 -13.515625 C 6.507812 -13.242188 6.148438 -12.9375 5.859375 -12.59375 C 5.566406 -12.25 5.421875 -12.0625 5.421875 -12.03125 L 5.421875 -0.625 C 5.421875 -0.394531 5.320312 -0.222656 5.125 -0.109375 C 4.925781 -0.00390625 4.613281 0.046875 4.1875 0.046875 Z M 4.0625 0.046875 "/></g></g></g><g fill="#004aad" fill-opacity="1"><g transform="translate(521.669473, 523.157394)"><g><path d="M 6.859375 0.171875 C 5.265625 0.171875 3.976562 -0.21875 3 -1 C 2.019531 -1.78125 1.53125 -2.941406 1.53125 -4.484375 C 1.53125 -6.109375 2.023438 -7.332031 3.015625 -8.15625 C 4.003906 -8.988281 5.21875 -9.523438 6.65625 -9.765625 C 8.09375 -10.003906 9.832031 -10.140625 11.875 -10.171875 L 11.875 -11.640625 C 11.875 -12.429688 11.609375 -13.0625 11.078125 -13.53125 C 10.546875 -14.007812 9.671875 -14.25 8.453125 -14.25 C 7.523438 -14.25 6.710938 -14.140625 6.015625 -13.921875 C 5.328125 -13.703125 4.675781 -13.441406 4.0625 -13.140625 C 3.8125 -13.003906 3.65625 -12.9375 3.59375 -12.9375 C 3.457031 -12.9375 3.300781 -13.039062 3.125 -13.25 C 2.957031 -13.457031 2.8125 -13.6875 2.6875 -13.9375 C 2.570312 -14.195312 2.515625 -14.382812 2.515625 -14.5 C 2.515625 -14.769531 2.789062 -15.0625 3.34375 -15.375 C 3.894531 -15.695312 4.617188 -15.960938 5.515625 -16.171875 C 6.421875 -16.378906 7.363281 -16.484375 8.34375 -16.484375 C 10.300781 -16.484375 11.816406 -16.054688 12.890625 -15.203125 C 13.960938 -14.347656 14.5 -13.148438 14.5 -11.609375 L 14.5 -4.609375 C 14.5 -3.253906 14.5625 -2.273438 14.6875 -1.671875 C 14.8125 -1.066406 14.875 -0.738281 14.875 -0.6875 C 14.875 -0.425781 14.675781 -0.238281 14.28125 -0.125 C 13.894531 -0.0195312 13.53125 0.03125 13.1875 0.03125 C 12.90625 0.03125 12.695312 -0.125 12.5625 -0.4375 C 12.425781 -0.75 12.296875 -1.207031 12.171875 -1.8125 L 12.109375 -2.15625 C 11.460938 -1.445312 10.703125 -0.878906 9.828125 -0.453125 C 8.960938 -0.0351562 7.972656 0.171875 6.859375 0.171875 Z M 7 -2.09375 C 8.03125 -2.09375 8.90625 -2.273438 9.625 -2.640625 C 10.351562 -3.015625 11.101562 -3.550781 11.875 -4.25 L 11.875 -7.921875 C 10.332031 -7.910156 9.0625 -7.847656 8.0625 -7.734375 C 7.070312 -7.617188 6.203125 -7.320312 5.453125 -6.84375 C 4.703125 -6.375 4.328125 -5.640625 4.328125 -4.640625 C 4.328125 -3.816406 4.550781 -3.1875 5 -2.75 C 5.457031 -2.3125 6.125 -2.09375 7 -2.09375 Z M 7 -2.09375 "/></g></g></g><g fill="#004aad" fill-opacity="1"><g transform="translate(538.658318, 523.157394)"><g><path d="M 9.296875 0.171875 C 6.710938 0.171875 4.785156 -0.488281 3.515625 -1.8125 C 2.242188 -3.144531 1.609375 -5.28125 1.609375 -8.21875 C 1.609375 -11.207031 2.316406 -13.332031 3.734375 -14.59375 C 5.148438 -15.851562 6.910156 -16.484375 9.015625 -16.484375 C 9.796875 -16.484375 10.546875 -16.414062 11.265625 -16.28125 C 11.992188 -16.144531 12.582031 -15.96875 13.03125 -15.75 C 13.476562 -15.53125 13.703125 -15.296875 13.703125 -15.046875 C 13.703125 -14.878906 13.644531 -14.660156 13.53125 -14.390625 C 13.414062 -14.128906 13.28125 -13.894531 13.125 -13.6875 C 12.96875 -13.488281 12.828125 -13.390625 12.703125 -13.390625 C 12.660156 -13.390625 12.601562 -13.398438 12.53125 -13.421875 C 12.46875 -13.453125 12.40625 -13.476562 12.34375 -13.5 C 11.289062 -14 10.160156 -14.25 8.953125 -14.25 C 7.503906 -14.25 6.390625 -13.773438 5.609375 -12.828125 C 4.828125 -11.890625 4.4375 -10.378906 4.4375 -8.296875 C 4.4375 -6.828125 4.59375 -5.640625 4.90625 -4.734375 C 5.226562 -3.828125 5.738281 -3.15625 6.4375 -2.71875 C 7.144531 -2.28125 8.09375 -2.0625 9.28125 -2.0625 C 10.570312 -2.0625 11.738281 -2.332031 12.78125 -2.875 C 12.882812 -2.894531 12.960938 -2.921875 13.015625 -2.953125 C 13.078125 -2.984375 13.117188 -3 13.140625 -3 C 13.265625 -3 13.410156 -2.898438 13.578125 -2.703125 C 13.742188 -2.503906 13.882812 -2.273438 14 -2.015625 C 14.125 -1.753906 14.1875 -1.550781 14.1875 -1.40625 C 14.1875 -1.15625 13.960938 -0.90625 13.515625 -0.65625 C 13.078125 -0.414062 12.476562 -0.21875 11.71875 -0.0625 C 10.96875 0.09375 10.160156 0.171875 9.296875 0.171875 Z M 9.296875 0.171875 "/></g></g></g><g fill="#004aad" fill-opacity="1"><g transform="translate(553.771202, 523.157394)"><g><path d="M 4.1875 0.046875 C 3.34375 0.046875 2.921875 -0.175781 2.921875 -0.625 L 2.921875 -22.765625 C 2.921875 -23.222656 3.34375 -23.453125 4.1875 -23.453125 L 4.3125 -23.453125 C 5.144531 -23.453125 5.5625 -23.222656 5.5625 -22.765625 L 5.5625 -8.828125 L 5.6875 -8.828125 L 11.640625 -15.9375 C 11.867188 -16.21875 12.421875 -16.359375 13.296875 -16.359375 L 13.40625 -16.359375 C 13.757812 -16.359375 14.03125 -16.320312 14.21875 -16.25 C 14.40625 -16.1875 14.5 -16.097656 14.5 -15.984375 C 14.5 -15.804688 14.394531 -15.59375 14.1875 -15.34375 L 8.390625 -8.484375 L 14.828125 -0.875 C 14.992188 -0.675781 15.078125 -0.515625 15.078125 -0.390625 C 15.078125 -0.210938 14.976562 -0.09375 14.78125 -0.03125 C 14.582031 0.0195312 14.234375 0.046875 13.734375 0.046875 L 13.59375 0.046875 C 13.15625 0.046875 12.800781 0.0234375 12.53125 -0.015625 C 12.269531 -0.0664062 12.0625 -0.175781 11.90625 -0.34375 L 5.6875 -7.75 L 5.5625 -7.75 L 5.5625 -0.625 C 5.5625 -0.175781 5.144531 0.046875 4.3125 0.046875 Z M 4.1875 0.046875 "/></g></g></g><g fill="#004aad" fill-opacity="1"><g transform="translate(570.006155, 523.157394)"><g><path d="M 3.96875 -20.234375 C 3.132812 -20.234375 2.71875 -20.460938 2.71875 -20.921875 L 2.71875 -22.765625 C 2.71875 -23.222656 3.132812 -23.453125 3.96875 -23.453125 L 4.328125 -23.453125 C 5.171875 -23.453125 5.59375 -23.222656 5.59375 -22.765625 L 5.59375 -20.921875 C 5.59375 -20.460938 5.171875 -20.234375 4.328125 -20.234375 Z M 4.09375 0.046875 C 3.257812 0.046875 2.84375 -0.175781 2.84375 -0.625 L 2.84375 -15.6875 C 2.84375 -16.132812 3.257812 -16.359375 4.09375 -16.359375 L 4.203125 -16.359375 C 5.046875 -16.359375 5.46875 -16.132812 5.46875 -15.6875 L 5.46875 -0.625 C 5.46875 -0.175781 5.046875 0.046875 4.203125 0.046875 Z M 4.09375 0.046875 "/></g></g></g><g fill="#004aad" fill-opacity="1"><g transform="translate(578.263891, 523.157394)"><g><path d="M 3.953125 0.046875 C 3.503906 0.046875 3.179688 -0.00390625 2.984375 -0.109375 C 2.785156 -0.222656 2.6875 -0.394531 2.6875 -0.625 L 2.6875 -11.578125 C 2.6875 -12.929688 2.617188 -13.910156 2.484375 -14.515625 C 2.359375 -15.117188 2.296875 -15.445312 2.296875 -15.5 C 2.296875 -15.757812 2.488281 -15.941406 2.875 -16.046875 C 3.269531 -16.160156 3.644531 -16.21875 4 -16.21875 C 4.289062 -16.21875 4.503906 -16.0625 4.640625 -15.75 C 4.785156 -15.4375 4.890625 -15.113281 4.953125 -14.78125 C 5.015625 -14.457031 5.0625 -14.25 5.09375 -14.15625 C 5.738281 -14.894531 6.488281 -15.46875 7.34375 -15.875 C 8.207031 -16.28125 9.082031 -16.484375 9.96875 -16.484375 C 11.550781 -16.484375 12.789062 -16.035156 13.6875 -15.140625 C 14.582031 -14.242188 15.03125 -13.015625 15.03125 -11.453125 L 15.03125 -0.625 C 15.03125 -0.394531 14.929688 -0.222656 14.734375 -0.109375 C 14.535156 -0.00390625 14.21875 0.046875 13.78125 0.046875 L 13.640625 0.046875 C 13.222656 0.046875 12.914062 -0.00390625 12.71875 -0.109375 C 12.519531 -0.222656 12.421875 -0.394531 12.421875 -0.625 L 12.421875 -11.1875 C 12.421875 -12.144531 12.140625 -12.890625 11.578125 -13.421875 C 11.023438 -13.953125 10.25 -14.21875 9.25 -14.21875 C 8.539062 -14.21875 7.832031 -14.019531 7.125 -13.625 C 6.414062 -13.238281 5.804688 -12.707031 5.296875 -12.03125 L 5.296875 -0.625 C 5.296875 -0.394531 5.195312 -0.222656 5 -0.109375 C 4.800781 -0.00390625 4.488281 0.046875 4.0625 0.046875 Z M 3.953125 0.046875 "/></g></g></g><g fill="#004aad" fill-opacity="1"><g transform="translate(595.620915, 523.157394)"><g><path d="M 7.890625 6.609375 C 5.898438 6.609375 4.328125 6.296875 3.171875 5.671875 C 2.015625 5.054688 1.4375 4.082031 1.4375 2.75 C 1.4375 1.84375 1.695312 1.046875 2.21875 0.359375 C 2.75 -0.316406 3.4375 -0.820312 4.28125 -1.15625 L 4.3125 -1.234375 C 3.90625 -1.546875 3.59375 -1.90625 3.375 -2.3125 C 3.15625 -2.71875 3.046875 -3.203125 3.046875 -3.765625 C 3.046875 -5.128906 3.632812 -6.21875 4.8125 -7.03125 C 3.925781 -7.457031 3.253906 -8.050781 2.796875 -8.8125 C 2.347656 -9.582031 2.125 -10.445312 2.125 -11.40625 C 2.125 -12.363281 2.359375 -13.226562 2.828125 -14 C 3.304688 -14.769531 4.003906 -15.375 4.921875 -15.8125 C 5.847656 -16.257812 6.960938 -16.484375 8.265625 -16.484375 C 8.953125 -16.484375 9.566406 -16.425781 10.109375 -16.3125 L 15.765625 -16.3125 C 15.992188 -16.3125 16.15625 -16.238281 16.25 -16.09375 C 16.351562 -15.945312 16.40625 -15.707031 16.40625 -15.375 L 16.40625 -15 C 16.40625 -14.664062 16.351562 -14.425781 16.25 -14.28125 C 16.15625 -14.132812 15.992188 -14.0625 15.765625 -14.0625 C 14.984375 -14.0625 14.257812 -14.09375 13.59375 -14.15625 L 13.5625 -14.109375 C 13.832031 -13.734375 14.03125 -13.3125 14.15625 -12.84375 C 14.289062 -12.382812 14.359375 -11.90625 14.359375 -11.40625 C 14.359375 -10.445312 14.117188 -9.578125 13.640625 -8.796875 C 13.171875 -8.023438 12.476562 -7.414062 11.5625 -6.96875 C 10.644531 -6.53125 9.53125 -6.3125 8.21875 -6.3125 C 7.238281 -6.28125 6.5 -6.097656 6 -5.765625 C 5.507812 -5.441406 5.265625 -4.90625 5.265625 -4.15625 C 5.265625 -3.601562 5.441406 -3.179688 5.796875 -2.890625 C 6.148438 -2.597656 6.597656 -2.394531 7.140625 -2.28125 C 7.679688 -2.164062 8.429688 -2.054688 9.390625 -1.953125 L 10.296875 -1.84375 C 11.265625 -1.71875 12.078125 -1.539062 12.734375 -1.3125 C 13.390625 -1.09375 13.929688 -0.722656 14.359375 -0.203125 C 14.785156 0.304688 15 1.007812 15 1.90625 C 15 3.414062 14.394531 4.578125 13.1875 5.390625 C 11.988281 6.203125 10.222656 6.609375 7.890625 6.609375 Z M 8.21875 -8.390625 C 9.363281 -8.390625 10.273438 -8.617188 10.953125 -9.078125 C 11.640625 -9.546875 11.984375 -10.316406 11.984375 -11.390625 C 11.984375 -13.398438 10.726562 -14.40625 8.21875 -14.40625 C 5.757812 -14.40625 4.53125 -13.398438 4.53125 -11.390625 C 4.53125 -10.316406 4.863281 -9.546875 5.53125 -9.078125 C 6.207031 -8.617188 7.101562 -8.390625 8.21875 -8.390625 Z M 8.21875 4.484375 C 9.675781 4.484375 10.753906 4.289062 11.453125 3.90625 C 12.148438 3.53125 12.5 2.957031 12.5 2.1875 C 12.5 1.6875 12.3125 1.296875 11.9375 1.015625 C 11.570312 0.742188 11.113281 0.550781 10.5625 0.4375 C 10.019531 0.332031 9.304688 0.234375 8.421875 0.140625 C 7.804688 0.0664062 7.300781 0.00390625 6.90625 -0.046875 C 6.519531 -0.109375 6.164062 -0.191406 5.84375 -0.296875 C 4.457031 0.285156 3.765625 1.132812 3.765625 2.25 C 3.765625 3.738281 5.25 4.484375 8.21875 4.484375 Z M 8.21875 4.484375 "/></g></g></g></svg>