<svg xmlns="http://www.w3.org/2000/svg" xmlns:xlink="http://www.w3.org/1999/xlink" width="1080" zoomAndPan="magnify" viewBox="0 0 810 809.999993" height="1080" preserveAspectRatio="xMidYMid meet" version="1.0"><defs><g/><clipPath id="f6db22cabd"><path d="M 503 293.171875 L 564 293.171875 L 564 399 L 503 399 Z M 503 293.171875 " clip-rule="nonzero"/></clipPath><clipPath id="f1bed74023"><path d="M 534 426 L 554 426 L 554 460.421875 L 534 460.421875 Z M 534 426 " clip-rule="nonzero"/></clipPath></defs><g fill="#000000" fill-opacity="1"><g transform="translate(118.036124, 394.428113)"><g><path d="M 37.753906 -0.28125 L 37.753906 -12.398438 C 36.535156 -12.113281 35.125 -12.019531 34.375 -12.019531 C 28.832031 -12.019531 25.640625 -14.085938 25.640625 -20.003906 L 25.640625 -37.472656 L 38.035156 -37.472656 L 38.035156 -50.152344 L 25.640625 -50.152344 L 25.640625 -65.835938 L 11.175781 -65.835938 L 11.175781 -50.152344 L 1.972656 -50.152344 L 1.972656 -37.472656 L 10.988281 -37.472656 L 10.988281 -18.21875 C 10.988281 -6.761719 17.5625 0.65625 30.898438 0.65625 C 33.152344 0.65625 35.21875 0.46875 37.753906 -0.28125 Z M 37.753906 -0.28125 "/></g></g></g><g fill="#000000" fill-opacity="1"><g transform="translate(151.652119, 394.428113)"><g><path d="M 38.503906 -35.875 L 38.503906 -50.339844 C 37.941406 -50.527344 36.628906 -50.714844 35.59375 -50.714844 C 28.550781 -50.714844 23.386719 -46.769531 21.414062 -42.449219 L 21.320312 -42.449219 L 21.320312 -50.152344 L 6.761719 -50.152344 L 6.761719 0 L 21.414062 0 L 21.414062 -21.226562 C 21.414062 -29.488281 24.980469 -36.15625 35.03125 -36.15625 C 36.34375 -36.15625 37.378906 -36.0625 38.503906 -35.875 Z M 38.503906 -35.875 "/></g></g></g><g fill="#000000" fill-opacity="1"><g transform="translate(182.920555, 394.428113)"><g><path d="M 20.847656 0.9375 C 26.296875 0.9375 32.121094 -0.9375 35.875 -6.292969 L 36.0625 -6.199219 L 36.0625 0 L 49.585938 0 L 49.585938 -31.085938 C 49.585938 -44.609375 40.570312 -51.277344 27.800781 -51.277344 C 16.433594 -51.277344 8.828125 -46.769531 4.789062 -39.351562 L 15.964844 -32.683594 C 18.40625 -37.097656 21.882812 -39.445312 27.140625 -39.445312 C 32.683594 -39.445312 35.21875 -36.441406 35.21875 -33.246094 C 35.21875 -31.179688 33.996094 -29.582031 31.273438 -29.582031 L 26.296875 -29.582031 C 16.152344 -29.582031 3.945312 -26.578125 3.945312 -14.179688 L 3.945312 -13.992188 C 3.945312 -4.695312 11.832031 0.9375 20.847656 0.9375 Z M 25.074219 -9.765625 C 21.601562 -9.765625 18.6875 -11.269531 18.6875 -14.839844 C 18.6875 -18.785156 22.351562 -20.566406 26.296875 -20.566406 L 35.125 -20.566406 L 35.125 -19.441406 C 35.125 -14.179688 31.554688 -9.765625 25.074219 -9.765625 Z M 25.074219 -9.765625 "/></g></g></g><g fill="#000000" fill-opacity="1"><g transform="translate(230.152588, 394.428113)"><g><path d="M 30.710938 1.128906 C 41.511719 1.128906 50.808594 -3.851562 54.847656 -14.464844 L 41.886719 -19.816406 C 40.289062 -16.058594 37.097656 -12.398438 30.804688 -12.398438 C 23.574219 -12.398438 18.785156 -17.75 18.785156 -25.167969 C 18.785156 -33.152344 24.324219 -37.847656 30.804688 -37.847656 C 37.097656 -37.847656 39.914062 -34.28125 41.605469 -30.429688 L 54.472656 -35.78125 C 51.183594 -45.925781 41.605469 -51.277344 30.804688 -51.277344 C 15.777344 -51.277344 3.757812 -39.820312 3.757812 -24.980469 C 3.757812 -10.050781 14.933594 1.128906 30.710938 1.128906 Z M 30.710938 1.128906 "/></g></g></g><g fill="#000000" fill-opacity="1"><g transform="translate(279.262667, 394.428113)"><g><path d="M 21.414062 -23.761719 L 21.789062 -23.761719 L 39.539062 0 L 58.039062 0 L 37.285156 -27.046875 L 57.476562 -50.152344 L 38.789062 -50.152344 L 21.414062 -30.429688 L 21.414062 -76.542969 L 6.761719 -76.542969 L 6.761719 0 L 21.414062 0 Z M 21.414062 -23.761719 "/></g></g></g><g fill="#000000" fill-opacity="1"><g transform="translate(328.748386, 394.428113)"><g/></g></g><g fill="#000000" fill-opacity="1"><g transform="translate(343.677586, 394.428113)"><g><path d="M 21.320312 -43.953125 L 21.320312 -50.152344 L 6.761719 -50.152344 L 6.761719 24.792969 L 21.414062 24.792969 L 21.414062 -5.542969 L 21.601562 -5.542969 C 26.296875 0.1875 32.871094 0.9375 36.441406 0.9375 C 50.996094 0.9375 60.671875 -12.113281 60.671875 -25.167969 C 60.671875 -37.847656 51.558594 -51.089844 36.816406 -51.089844 C 33.339844 -51.089844 26.296875 -50.433594 21.507812 -43.953125 Z M 21.039062 -25.167969 C 21.039062 -32.683594 26.578125 -37.847656 33.339844 -37.847656 C 40.289062 -37.847656 45.832031 -32.683594 45.832031 -25.167969 C 45.832031 -17.5625 40.289062 -12.304688 33.433594 -12.304688 C 26.578125 -12.304688 21.039062 -17.5625 21.039062 -25.167969 Z M 21.039062 -25.167969 "/></g></g></g><g fill="#000000" fill-opacity="1"><g transform="translate(399.454863, 394.428113)"><g><path d="M 38.503906 -35.875 L 38.503906 -50.339844 C 37.941406 -50.527344 36.628906 -50.714844 35.59375 -50.714844 C 28.550781 -50.714844 23.386719 -46.769531 21.414062 -42.449219 L 21.320312 -42.449219 L 21.320312 -50.152344 L 6.761719 -50.152344 L 6.761719 0 L 21.414062 0 L 21.414062 -21.226562 C 21.414062 -29.488281 24.980469 -36.15625 35.03125 -36.15625 C 36.34375 -36.15625 37.378906 -36.0625 38.503906 -35.875 Z M 38.503906 -35.875 "/></g></g></g><g fill="#000000" fill-opacity="1"><g transform="translate(430.723287, 394.428113)"><g><path d="M 3.664062 -24.980469 C 3.664062 -9.859375 15.777344 1.128906 30.992188 1.128906 C 46.113281 1.128906 58.414062 -10.144531 58.414062 -25.261719 C 58.414062 -40.195312 46.300781 -51.277344 31.179688 -51.277344 C 15.964844 -51.277344 3.664062 -39.914062 3.664062 -24.980469 Z M 18.6875 -25.167969 C 18.6875 -32.683594 24.136719 -37.941406 30.992188 -37.941406 C 37.847656 -37.941406 43.390625 -32.683594 43.390625 -25.167969 C 43.390625 -17.5625 37.941406 -12.304688 31.085938 -12.304688 C 24.230469 -12.304688 18.6875 -17.5625 18.6875 -25.167969 Z M 18.6875 -25.167969 "/></g></g></g><g fill="#000000" fill-opacity="1"><g transform="translate(382.359746, 420.439188)"><g><path d="M 11.222656 -9.019531 C 11.222656 -11.832031 9.136719 -13.273438 6.476562 -13.273438 L 1.542969 -13.273438 L 1.542969 0 L 4.289062 0 L 4.289062 -4.679688 L 6.375 -4.679688 C 9.15625 -4.679688 11.222656 -6.085938 11.222656 -9.019531 Z M 8.460938 -8.953125 C 8.460938 -7.714844 7.339844 -7.238281 6.257812 -7.238281 L 4.289062 -7.238281 L 4.289062 -10.679688 L 6.238281 -10.679688 C 7.375 -10.679688 8.460938 -10.238281 8.460938 -8.953125 Z M 8.460938 -8.953125 "/></g></g></g><g fill="#000000" fill-opacity="1"><g transform="translate(396.906218, 420.439188)"><g><path d="M 11.75 0 L 8.75 -5.1875 C 10.546875 -5.832031 11.476562 -7.171875 11.476562 -9.070312 C 11.476562 -11.882812 9.359375 -13.273438 6.78125 -13.273438 L 1.542969 -13.273438 L 1.542969 0 L 4.289062 0 L 4.289062 -4.765625 L 5.949219 -4.765625 L 8.699219 0 Z M 6.578125 -7.308594 L 4.289062 -7.308594 L 4.289062 -10.679688 L 6.5625 -10.679688 C 7.59375 -10.679688 8.699219 -10.289062 8.699219 -9.019531 C 8.699219 -7.765625 7.59375 -7.308594 6.578125 -7.308594 Z M 6.578125 -7.308594 "/></g></g></g><g fill="#000000" fill-opacity="1"><g transform="translate(412.113892, 420.439188)"><g><path d="M 0.730469 -6.628906 C 0.730469 -2.796875 3.78125 0.203125 7.59375 0.203125 C 11.410156 0.203125 14.511719 -2.832031 14.511719 -6.695312 C 14.511719 -10.511719 11.476562 -13.476562 7.664062 -13.476562 C 3.847656 -13.476562 0.730469 -10.445312 0.730469 -6.628906 Z M 3.542969 -6.644531 C 3.542969 -8.933594 5.339844 -10.816406 7.628906 -10.816406 C 9.917969 -10.816406 11.714844 -8.933594 11.714844 -6.644531 C 11.714844 -4.355469 9.917969 -2.457031 7.628906 -2.457031 C 5.339844 -2.457031 3.542969 -4.355469 3.542969 -6.644531 Z M 3.542969 -6.644531 "/></g></g></g><g fill="#000000" fill-opacity="1"><g transform="translate(430.169818, 420.439188)"><g><path d="M 9.105469 -4.035156 L 9.105469 -13.273438 L 6.359375 -13.273438 L 6.359375 -4.238281 C 6.359375 -3.085938 5.714844 -2.457031 4.695312 -2.457031 C 3.898438 -2.457031 3.222656 -2.917969 2.8125 -3.96875 L 0.492188 -2.679688 C 1.273438 -0.761719 2.761719 0.167969 4.746094 0.167969 C 7.121094 0.167969 9.105469 -1.273438 9.105469 -4.035156 Z M 9.105469 -4.035156 "/></g></g></g><g fill="#000000" fill-opacity="1"><g transform="translate(443.529507, 420.439188)"><g><path d="M 1.542969 -13.273438 L 1.542969 0 L 10.273438 0 L 10.273438 -2.558594 L 4.253906 -2.558594 L 4.253906 -5.425781 L 9.613281 -5.425781 L 9.613281 -8.003906 L 4.253906 -8.003906 L 4.253906 -10.699219 L 10.238281 -10.699219 L 10.238281 -13.273438 Z M 1.542969 -13.273438 "/></g></g></g><g fill="#000000" fill-opacity="1"><g transform="translate(457.584309, 420.439188)"><g><path d="M 0.730469 -6.628906 C 0.730469 -2.761719 3.695312 0.1875 7.5625 0.1875 C 10.171875 0.1875 12.765625 -1.253906 13.683594 -3.765625 L 11.15625 -4.933594 C 10.578125 -3.492188 9.257812 -2.476562 7.59375 -2.476562 C 5.238281 -2.476562 3.578125 -4.355469 3.578125 -6.664062 C 3.578125 -8.933594 5.289062 -10.800781 7.59375 -10.800781 C 9.257812 -10.800781 10.5625 -9.867188 11.121094 -8.410156 L 13.632812 -9.5625 C 12.730469 -12.054688 10.222656 -13.476562 7.613281 -13.476562 C 3.816406 -13.476562 0.730469 -10.460938 0.730469 -6.628906 Z M 0.730469 -6.628906 "/></g></g></g><g fill="#000000" fill-opacity="1"><g transform="translate(474.504324, 420.439188)"><g><path d="M 4.339844 0 L 7.070312 0 L 7.070312 -10.613281 L 11.054688 -10.613281 L 11.054688 -13.273438 L 0.355469 -13.273438 L 0.355469 -10.613281 L 4.339844 -10.613281 Z M 4.339844 0 "/></g></g></g><g fill="#000000" fill-opacity="1"><g transform="translate(191.916151, 443.044294)"><g><path d="M 13.460938 -8.765625 L 13.476562 -8.765625 L 13.476562 0 L 16.191406 0 L 16.191406 -13.273438 L 12.546875 -13.273438 L 8.851562 -4.375 L 5.085938 -13.273438 L 1.542969 -13.273438 L 1.542969 0 L 4.238281 0 L 4.238281 -8.699219 L 4.253906 -8.699219 L 7.933594 0 L 9.765625 0 Z M 13.460938 -8.765625 "/></g></g></g><g fill="#000000" fill-opacity="1"><g transform="translate(212.464323, 443.044294)"><g><path d="M 2.746094 0 L 3.730469 -2.679688 L 9.613281 -2.679688 L 10.613281 0 L 13.445312 0 L 8.359375 -13.273438 L 5.050781 -13.273438 L -0.015625 0 Z M 6.679688 -10.613281 L 8.679688 -5.222656 L 4.679688 -5.222656 Z M 6.679688 -10.613281 "/></g></g></g><g fill="#000000" fill-opacity="1"><g transform="translate(228.706195, 443.044294)"><g><path d="M 4.253906 -9.15625 L 10.359375 0 L 13.15625 0 L 13.15625 -13.273438 L 10.445312 -13.273438 L 10.445312 -4.613281 L 4.679688 -13.273438 L 1.542969 -13.273438 L 1.542969 0 L 4.253906 0 Z M 4.253906 -9.15625 "/></g></g></g><g fill="#000000" fill-opacity="1"><g transform="translate(246.23656, 443.044294)"><g><path d="M 2.746094 0 L 3.730469 -2.679688 L 9.613281 -2.679688 L 10.613281 0 L 13.445312 0 L 8.359375 -13.273438 L 5.050781 -13.273438 L -0.015625 0 Z M 6.679688 -10.613281 L 8.679688 -5.222656 L 4.679688 -5.222656 Z M 6.679688 -10.613281 "/></g></g></g><g fill="#000000" fill-opacity="1"><g transform="translate(262.478434, 443.044294)"><g><path d="M 3.527344 -6.644531 C 3.527344 -9.054688 5.375 -10.882812 7.613281 -10.882812 C 9.75 -10.882812 10.78125 -9.546875 11.171875 -8.542969 L 13.597656 -9.730469 C 13.003906 -11.394531 11.035156 -13.476562 7.644531 -13.476562 C 3.867188 -13.476562 0.730469 -10.496094 0.730469 -6.628906 C 0.730469 -2.847656 3.507812 0.203125 7.613281 0.203125 C 10.851562 0.203125 13.902344 -1.964844 13.902344 -6.101562 L 13.902344 -7.136719 L 7 -7.136719 L 7 -4.644531 L 11.035156 -4.644531 C 10.714844 -3.339844 9.410156 -2.40625 7.613281 -2.40625 C 5.203125 -2.40625 3.527344 -4.339844 3.527344 -6.644531 Z M 3.527344 -6.644531 "/></g></g></g><g fill="#000000" fill-opacity="1"><g transform="translate(279.822304, 443.044294)"><g><path d="M 1.542969 -13.273438 L 1.542969 0 L 10.273438 0 L 10.273438 -2.558594 L 4.253906 -2.558594 L 4.253906 -5.425781 L 9.613281 -5.425781 L 9.613281 -8.003906 L 4.253906 -8.003906 L 4.253906 -10.699219 L 10.238281 -10.699219 L 10.238281 -13.273438 Z M 1.542969 -13.273438 "/></g></g></g><g fill="#000000" fill-opacity="1"><g transform="translate(293.877101, 443.044294)"><g><path d="M 13.460938 -8.765625 L 13.476562 -8.765625 L 13.476562 0 L 16.191406 0 L 16.191406 -13.273438 L 12.546875 -13.273438 L 8.851562 -4.375 L 5.085938 -13.273438 L 1.542969 -13.273438 L 1.542969 0 L 4.238281 0 L 4.238281 -8.699219 L 4.253906 -8.699219 L 7.933594 0 L 9.765625 0 Z M 13.460938 -8.765625 "/></g></g></g><g fill="#000000" fill-opacity="1"><g transform="translate(314.425269, 443.044294)"><g><path d="M 1.542969 -13.273438 L 1.542969 0 L 10.273438 0 L 10.273438 -2.558594 L 4.253906 -2.558594 L 4.253906 -5.425781 L 9.613281 -5.425781 L 9.613281 -8.003906 L 4.253906 -8.003906 L 4.253906 -10.699219 L 10.238281 -10.699219 L 10.238281 -13.273438 Z M 1.542969 -13.273438 "/></g></g></g><g fill="#000000" fill-opacity="1"><g transform="translate(328.480066, 443.044294)"><g><path d="M 4.253906 -9.15625 L 10.359375 0 L 13.15625 0 L 13.15625 -13.273438 L 10.445312 -13.273438 L 10.445312 -4.613281 L 4.679688 -13.273438 L 1.542969 -13.273438 L 1.542969 0 L 4.253906 0 Z M 4.253906 -9.15625 "/></g></g></g><g fill="#000000" fill-opacity="1"><g transform="translate(346.010429, 443.044294)"><g><path d="M 4.339844 0 L 7.070312 0 L 7.070312 -10.613281 L 11.054688 -10.613281 L 11.054688 -13.273438 L 0.355469 -13.273438 L 0.355469 -10.613281 L 4.339844 -10.613281 Z M 4.339844 0 "/></g></g></g><g fill="#000000" fill-opacity="1"><g transform="translate(360.234757, 443.044294)"><g/></g></g><g fill="#000000" fill-opacity="1"><g transform="translate(367.304533, 443.044294)"><g><path d="M 4.339844 0 L 7.070312 0 L 7.070312 -10.613281 L 11.054688 -10.613281 L 11.054688 -13.273438 L 0.355469 -13.273438 L 0.355469 -10.613281 L 4.339844 -10.613281 Z M 4.339844 0 "/></g></g></g><g fill="#000000" fill-opacity="1"><g transform="translate(381.528861, 443.044294)"><g><path d="M 11.75 0 L 8.75 -5.1875 C 10.546875 -5.832031 11.476562 -7.171875 11.476562 -9.070312 C 11.476562 -11.882812 9.359375 -13.273438 6.78125 -13.273438 L 1.542969 -13.273438 L 1.542969 0 L 4.289062 0 L 4.289062 -4.765625 L 5.949219 -4.765625 L 8.699219 0 Z M 6.578125 -7.308594 L 4.289062 -7.308594 L 4.289062 -10.679688 L 6.5625 -10.679688 C 7.59375 -10.679688 8.699219 -10.289062 8.699219 -9.019531 C 8.699219 -7.765625 7.59375 -7.308594 6.578125 -7.308594 Z M 6.578125 -7.308594 "/></g></g></g><g fill="#000000" fill-opacity="1"><g transform="translate(396.736542, 443.044294)"><g><path d="M 2.746094 0 L 3.730469 -2.679688 L 9.613281 -2.679688 L 10.613281 0 L 13.445312 0 L 8.359375 -13.273438 L 5.050781 -13.273438 L -0.015625 0 Z M 6.679688 -10.613281 L 8.679688 -5.222656 L 4.679688 -5.222656 Z M 6.679688 -10.613281 "/></g></g></g><g fill="#000000" fill-opacity="1"><g transform="translate(412.978421, 443.044294)"><g><path d="M 0.730469 -6.628906 C 0.730469 -2.761719 3.695312 0.1875 7.5625 0.1875 C 10.171875 0.1875 12.765625 -1.253906 13.683594 -3.765625 L 11.15625 -4.933594 C 10.578125 -3.492188 9.257812 -2.476562 7.59375 -2.476562 C 5.238281 -2.476562 3.578125 -4.355469 3.578125 -6.664062 C 3.578125 -8.933594 5.289062 -10.800781 7.59375 -10.800781 C 9.257812 -10.800781 10.5625 -9.867188 11.121094 -8.410156 L 13.632812 -9.5625 C 12.730469 -12.054688 10.222656 -13.476562 7.613281 -13.476562 C 3.816406 -13.476562 0.730469 -10.460938 0.730469 -6.628906 Z M 0.730469 -6.628906 "/></g></g></g><g fill="#000000" fill-opacity="1"><g transform="translate(429.898447, 443.044294)"><g><path d="M 4.273438 0 L 4.273438 -6.308594 L 9.054688 0 L 12.597656 0 L 7.1875 -6.933594 L 12.257812 -13.273438 L 8.832031 -13.273438 L 4.273438 -7.492188 L 4.273438 -13.273438 L 1.542969 -13.273438 L 1.542969 0 Z M 4.273438 0 "/></g></g></g><g fill="#000000" fill-opacity="1"><g transform="translate(445.190894, 443.044294)"><g><path d="M 4.289062 -13.273438 L 1.542969 -13.273438 L 1.542969 0 L 4.289062 0 Z M 4.289062 -13.273438 "/></g></g></g><g fill="#000000" fill-opacity="1"><g transform="translate(453.854349, 443.044294)"><g><path d="M 4.253906 -9.15625 L 10.359375 0 L 13.15625 0 L 13.15625 -13.273438 L 10.445312 -13.273438 L 10.445312 -4.613281 L 4.679688 -13.273438 L 1.542969 -13.273438 L 1.542969 0 L 4.253906 0 Z M 4.253906 -9.15625 "/></g></g></g><g fill="#000000" fill-opacity="1"><g transform="translate(471.384723, 443.044294)"><g><path d="M 3.527344 -6.644531 C 3.527344 -9.054688 5.375 -10.882812 7.613281 -10.882812 C 9.75 -10.882812 10.78125 -9.546875 11.171875 -8.542969 L 13.597656 -9.730469 C 13.003906 -11.394531 11.035156 -13.476562 7.644531 -13.476562 C 3.867188 -13.476562 0.730469 -10.496094 0.730469 -6.628906 C 0.730469 -2.847656 3.507812 0.203125 7.613281 0.203125 C 10.851562 0.203125 13.902344 -1.964844 13.902344 -6.101562 L 13.902344 -7.136719 L 7 -7.136719 L 7 -4.644531 L 11.035156 -4.644531 C 10.714844 -3.339844 9.410156 -2.40625 7.613281 -2.40625 C 5.203125 -2.40625 3.527344 -4.339844 3.527344 -6.644531 Z M 3.527344 -6.644531 "/></g></g></g><g clip-path="url(#f6db22cabd)"><path fill="#ed1c24" d="M 508.238281 293.171875 C 504.71875 293.171875 502.613281 295.929688 503.558594 299.300781 L 530.699219 395.890625 C 531.648438 399.261719 533.25 399.28125 534.261719 395.929688 L 563.570312 299.261719 C 564.585938 295.917969 562.539062 293.171875 559.023438 293.171875 L 540.726562 293.171875 C 537.207031 293.171875 531.449219 293.171875 527.929688 293.171875 Z M 508.238281 293.171875 " fill-opacity="1" fill-rule="nonzero"/></g><path fill="#ed1c24" d="M 571.027344 319.738281 C 568.65625 318.253906 566.0625 319.21875 565.253906 321.886719 L 542.144531 398.429688 C 541.339844 401.097656 542.414062 401.789062 544.535156 399.960938 L 605.679688 347.285156 C 607.796875 345.460938 607.589844 342.746094 605.226562 341.261719 L 592.902344 333.507812 C 590.53125 332.015625 586.65625 329.574219 584.289062 328.085938 Z M 571.027344 319.738281 " fill-opacity="1" fill-rule="nonzero"/><path fill="#ed1c24" d="M 599.90625 368.816406 C 599.019531 366.855469 596.941406 366.378906 595.269531 367.753906 L 547.589844 407.191406 C 545.921875 408.5625 546.320312 409.464844 548.464844 409.1875 L 610.386719 401.226562 C 612.53125 400.953125 613.566406 399.125 612.683594 397.164062 L 608.078125 386.949219 C 607.191406 384.988281 605.746094 381.773438 604.859375 379.8125 Z M 599.90625 368.816406 " fill-opacity="1" fill-rule="nonzero"/><path fill="#ed1c24" d="M 598.878906 412.828125 C 599.136719 411.160156 597.964844 409.964844 596.28125 410.164062 L 547.910156 415.941406 C 546.230469 416.144531 546.097656 416.90625 547.636719 417.636719 L 591.886719 438.65625 C 593.421875 439.386719 594.878906 438.613281 595.144531 436.945312 L 596.488281 428.257812 C 596.75 426.589844 597.171875 423.855469 597.433594 422.183594 Z M 598.878906 412.828125 " fill-opacity="1" fill-rule="nonzero"/><path fill="#ed1c24" d="M 579.21875 441.71875 C 580.140625 440.710938 579.894531 439.382812 578.671875 438.769531 L 543.519531 421.164062 C 542.289062 420.550781 541.867188 421.011719 542.566406 422.183594 L 562.910156 456 C 563.613281 457.167969 564.945312 457.304688 565.871094 456.292969 L 570.679688 451.035156 C 571.601562 450.03125 573.117188 448.378906 574.039062 447.367188 Z M 579.21875 441.71875 " fill-opacity="1" fill-rule="nonzero"/><g clip-path="url(#f1bed74023)"><path fill="#ed1c24" d="M 551.78125 456.921875 C 552.859375 456.699219 553.328125 455.714844 552.8125 454.742188 L 538.175781 426.761719 C 537.660156 425.789062 537.167969 425.882812 537.070312 426.980469 L 534.351562 458.617188 C 534.257812 459.710938 535.066406 460.421875 536.144531 460.199219 L 541.78125 459.019531 C 542.863281 458.789062 544.632812 458.421875 545.710938 458.195312 Z M 551.78125 456.921875 " fill-opacity="1" fill-rule="nonzero"/></g><path fill="#ed1c24" d="M 528.300781 455.582031 C 529.222656 455.859375 529.992188 455.300781 530.007812 454.347656 L 530.53125 426.902344 C 530.550781 425.945312 530.128906 425.816406 529.597656 426.609375 L 514.273438 449.664062 C 513.742188 450.460938 514.066406 451.335938 514.988281 451.613281 L 519.78125 453.046875 C 520.707031 453.316406 522.214844 453.765625 523.136719 454.046875 Z M 528.300781 455.582031 " fill-opacity="1" fill-rule="nonzero"/><path fill="#ed1c24" d="M 509.800781 437.15625 C 510.191406 437.804688 510.9375 437.882812 511.457031 437.34375 L 526.492188 421.710938 C 527.015625 421.164062 526.839844 420.867188 526.105469 421.046875 L 504.851562 426.273438 C 504.117188 426.453125 503.832031 427.132812 504.214844 427.78125 L 506.230469 431.15625 C 506.617188 431.804688 507.246094 432.867188 507.636719 433.515625 Z M 509.800781 437.15625 " fill-opacity="1" fill-rule="nonzero"/><path fill="#ed1c24" d="M 507.601562 414.324219 C 507.503906 414.894531 507.894531 415.308594 508.46875 415.25 L 524.921875 413.578125 C 525.5 413.519531 525.546875 413.257812 525.03125 413.003906 L 510.132812 405.597656 C 509.613281 405.34375 509.109375 405.597656 509.015625 406.164062 L 508.507812 409.101562 C 508.410156 409.664062 508.246094 410.59375 508.148438 411.160156 Z M 507.601562 414.324219 " fill-opacity="1" fill-rule="nonzero"/><path fill="#ed1c24" d="M 512.699219 399.949219 C 512.46875 400.359375 512.652344 400.777344 513.109375 400.886719 L 526.152344 404.007812 C 526.605469 404.109375 526.710938 403.925781 526.390625 403.59375 L 516.988281 393.945312 C 516.664062 393.613281 516.207031 393.675781 515.980469 394.074219 L 514.796875 396.199219 C 514.574219 396.601562 514.199219 397.269531 513.96875 397.675781 Z M 512.699219 399.949219 " fill-opacity="1" fill-rule="nonzero"/></svg>